<?xml version="1.0" encoding="utf-8" standalone="no"?>
<!DOCTYPE svg PUBLIC "-//W3C//DTD SVG 1.1//EN"
  "http://www.w3.org/Graphics/SVG/1.1/DTD/svg11.dtd">
<!-- Created with matplotlib (https://matplotlib.org/) -->
<svg height="208.529813pt" version="1.1" viewBox="0 0 215.171395 208.529813" width="215.171395pt" xmlns="http://www.w3.org/2000/svg" xmlns:xlink="http://www.w3.org/1999/xlink">
 <metadata>
  <rdf:RDF xmlns:cc="http://creativecommons.org/ns#" xmlns:dc="http://purl.org/dc/elements/1.1/" xmlns:rdf="http://www.w3.org/1999/02/22-rdf-syntax-ns#">
   <cc:Work>
    <dc:type rdf:resource="http://purl.org/dc/dcmitype/StillImage"/>
    <dc:date>2022-12-04T16:57:25.244092</dc:date>
    <dc:format>image/svg+xml</dc:format>
    <dc:creator>
     <cc:Agent>
      <dc:title>Matplotlib v3.3.4, https://matplotlib.org/</dc:title>
     </cc:Agent>
    </dc:creator>
   </cc:Work>
  </rdf:RDF>
 </metadata>
 <defs>
  <style type="text/css">*{stroke-linecap:butt;stroke-linejoin:round;}</style>
 </defs>
 <g id="figure_1">
  <g id="patch_1">
   <path d="M 0 208.529813 
L 215.171395 208.529813 
L 215.171395 0 
L 0 0 
z
" style="fill:none;"/>
  </g>
  <g id="axes_1">
   <g id="patch_2">
    <path d="M 36.381757 173.393325 
L 203.781757 173.393325 
L 203.781757 10.313325 
L 36.381757 10.313325 
z
" style="fill:#ffffff;"/>
   </g>
   <g id="matplotlib.axis_1">
    <g id="xtick_1">
     <g id="line2d_1">
      <defs>
       <path d="M 0 0 
L 0 3.5 
" id="mede20a6f07" style="stroke:#000000;stroke-width:0.8;"/>
      </defs>
      <g>
       <use style="stroke:#000000;stroke-width:0.8;" x="38.862947" xlink:href="#mede20a6f07" y="173.393325"/>
      </g>
     </g>
     <g id="text_1">
      <!-- $\mathdefault{10^{0}}$ -->
      <g transform="translate(32.4288 186.619975)scale(0.09 -0.09)">
       <defs>
        <path d="M 26.59375 63.796875 
C 26.59375 65.890625 26.5 66 25.09375 66 
C 21.203125 61.359375 15.296875 59.890625 9.703125 59.6875 
C 9.40625 59.6875 8.90625 59.6875 8.796875 59.5 
C 8.703125 59.296875 8.703125 59.09375 8.703125 57 
C 11.796875 57 17 57.59375 21 59.984375 
L 21 7.296875 
C 21 3.796875 20.796875 2.59375 12.203125 2.59375 
L 9.203125 2.59375 
L 9.203125 0 
C 14 0.09375 19 0.1875 23.796875 0.1875 
C 28.59375 0.1875 33.59375 0.09375 38.40625 0 
L 38.40625 2.59375 
L 35.40625 2.59375 
C 26.796875 2.59375 26.59375 3.6875 26.59375 7.296875 
z
" id="CMR17-49"/>
        <path d="M 42 31.84375 
C 42 37.96875 41.90625 48.421875 37.703125 56.453125 
C 34 63.484375 28.09375 66 22.90625 66 
C 18.09375 66 12 63.78125 8.203125 56.5625 
C 4.203125 49.015625 3.796875 39.671875 3.796875 31.84375 
C 3.796875 26.109375 3.90625 17.375 7 9.734375 
C 11.296875 -0.609375 19 -2 22.90625 -2 
C 27.5 -2 34.5 -0.109375 38.59375 9.4375 
C 41.59375 16.375 42 24.5 42 31.84375 
z
M 22.90625 -0.40625 
C 16.5 -0.40625 12.703125 5.125 11.296875 12.75 
C 10.203125 18.6875 10.203125 27.328125 10.203125 32.953125 
C 10.203125 40.6875 10.203125 47.109375 11.5 53.234375 
C 13.40625 61.78125 19 64.390625 22.90625 64.390625 
C 27 64.390625 32.296875 61.671875 34.203125 53.4375 
C 35.5 47.71875 35.59375 40.984375 35.59375 32.953125 
C 35.59375 26.421875 35.59375 18.375 34.40625 12.453125 
C 32.296875 1.5 26.40625 -0.40625 22.90625 -0.40625 
z
" id="CMR17-48"/>
       </defs>
       <use transform="scale(0.996264)" xlink:href="#CMR17-49"/>
       <use transform="translate(45.690477 0)scale(0.996264)" xlink:href="#CMR17-48"/>
       <use transform="translate(91.380954 36.153639)scale(0.697382)" xlink:href="#CMR17-48"/>
      </g>
     </g>
    </g>
    <g id="xtick_2">
     <g id="line2d_2">
      <g>
       <use style="stroke:#000000;stroke-width:0.8;" x="93.087714" xlink:href="#mede20a6f07" y="173.393325"/>
      </g>
     </g>
     <g id="text_2">
      <!-- $\mathdefault{10^{1}}$ -->
      <g transform="translate(86.653567 186.619975)scale(0.09 -0.09)">
       <use transform="scale(0.996264)" xlink:href="#CMR17-49"/>
       <use transform="translate(45.690477 0)scale(0.996264)" xlink:href="#CMR17-48"/>
       <use transform="translate(91.380954 36.153639)scale(0.697382)" xlink:href="#CMR17-49"/>
      </g>
     </g>
    </g>
    <g id="xtick_3">
     <g id="line2d_3">
      <g>
       <use style="stroke:#000000;stroke-width:0.8;" x="147.312481" xlink:href="#mede20a6f07" y="173.393325"/>
      </g>
     </g>
     <g id="text_3">
      <!-- $\mathdefault{10^{2}}$ -->
      <g transform="translate(140.878335 186.619975)scale(0.09 -0.09)">
       <defs>
        <path d="M 41.703125 15.46875 
L 39.90625 15.46875 
C 38.90625 8.390625 38.09375 7.1875 37.703125 6.59375 
C 37.203125 5.796875 30 5.796875 28.59375 5.796875 
L 9.40625 5.796875 
C 13 9.6875 20 16.765625 28.5 24.9375 
C 34.59375 30.71875 41.703125 37.5 41.703125 47.390625 
C 41.703125 59.1875 32.296875 66 21.796875 66 
C 10.796875 66 4.09375 56.296875 4.09375 47.296875 
C 4.09375 43.390625 7 42.890625 8.203125 42.890625 
C 9.203125 42.890625 12.203125 43.484375 12.203125 46.984375 
C 12.203125 50.09375 9.59375 51 8.203125 51 
C 7.59375 51 7 50.890625 6.59375 50.6875 
C 8.5 59.1875 14.296875 63.390625 20.40625 63.390625 
C 29.09375 63.390625 34.796875 56.5 34.796875 47.390625 
C 34.796875 38.703125 29.703125 31.21875 24 24.734375 
L 4.09375 2.296875 
L 4.09375 0 
L 39.296875 0 
z
" id="CMR17-50"/>
       </defs>
       <use transform="scale(0.996264)" xlink:href="#CMR17-49"/>
       <use transform="translate(45.690477 0)scale(0.996264)" xlink:href="#CMR17-48"/>
       <use transform="translate(91.380954 36.153639)scale(0.697382)" xlink:href="#CMR17-50"/>
      </g>
     </g>
    </g>
    <g id="xtick_4">
     <g id="line2d_4">
      <g>
       <use style="stroke:#000000;stroke-width:0.8;" x="201.537249" xlink:href="#mede20a6f07" y="173.393325"/>
      </g>
     </g>
     <g id="text_4">
      <!-- $\mathdefault{10^{3}}$ -->
      <g transform="translate(195.103102 186.619975)scale(0.09 -0.09)">
       <defs>
        <path d="M 22.09375 34 
C 31 34 34.90625 26.140625 34.90625 17.09375 
C 34.90625 5.03125 28.5 0.390625 22.703125 0.390625 
C 17.40625 0.390625 8.796875 3.015625 6.09375 10.796875 
C 6.59375 10.59375 7.09375 10.59375 7.59375 10.59375 
C 10 10.59375 11.796875 12.1875 11.796875 14.796875 
C 11.796875 17.6875 9.59375 19 7.59375 19 
C 5.90625 19 3.296875 18.1875 3.296875 14.484375 
C 3.296875 5.234375 12.296875 -2 22.90625 -2 
C 34 -2 42.5 6.75 42.5 16.984375 
C 42.5 26.84375 34.5 34 25 35.09375 
C 32.59375 36.671875 39.90625 43.375 39.90625 52.390625 
C 39.90625 60.25 32 66 23 66 
C 13.90625 66 5.90625 60.34375 5.90625 52.296875 
C 5.90625 48.796875 8.5 48.1875 9.796875 48.1875 
C 11.90625 48.1875 13.703125 49.484375 13.703125 52.09375 
C 13.703125 54.6875 11.90625 56 9.796875 56 
C 9.40625 56 8.90625 56 8.5 55.796875 
C 11.40625 62.484375 19.296875 63.6875 22.796875 63.6875 
C 26.296875 63.6875 32.90625 61.96875 32.90625 52.296875 
C 32.90625 49.484375 32.5 44.546875 29.09375 40.21875 
C 26.09375 36.390625 22.703125 36.1875 19.40625 35.890625 
C 18.90625 35.890625 16.59375 35.6875 16.203125 35.6875 
C 15.5 35.59375 15.09375 35.5 15.09375 34.796875 
C 15.09375 34.09375 15.203125 34 17.203125 34 
z
" id="CMR17-51"/>
       </defs>
       <use transform="scale(0.996264)" xlink:href="#CMR17-49"/>
       <use transform="translate(45.690477 0)scale(0.996264)" xlink:href="#CMR17-48"/>
       <use transform="translate(91.380954 36.153639)scale(0.697382)" xlink:href="#CMR17-51"/>
      </g>
     </g>
    </g>
    <g id="xtick_5">
     <g id="line2d_5">
      <defs>
       <path d="M 0 0 
L 0 2 
" id="m8c2330064e" style="stroke:#000000;stroke-width:0.6;"/>
      </defs>
      <g>
       <use style="stroke:#000000;stroke-width:0.6;" x="36.381757" xlink:href="#m8c2330064e" y="173.393325"/>
      </g>
     </g>
    </g>
    <g id="xtick_6">
     <g id="line2d_6">
      <g>
       <use style="stroke:#000000;stroke-width:0.6;" x="55.186228" xlink:href="#m8c2330064e" y="173.393325"/>
      </g>
     </g>
    </g>
    <g id="xtick_7">
     <g id="line2d_7">
      <g>
       <use style="stroke:#000000;stroke-width:0.6;" x="64.734736" xlink:href="#m8c2330064e" y="173.393325"/>
      </g>
     </g>
    </g>
    <g id="xtick_8">
     <g id="line2d_8">
      <g>
       <use style="stroke:#000000;stroke-width:0.6;" x="71.50951" xlink:href="#m8c2330064e" y="173.393325"/>
      </g>
     </g>
    </g>
    <g id="xtick_9">
     <g id="line2d_9">
      <g>
       <use style="stroke:#000000;stroke-width:0.6;" x="76.764433" xlink:href="#m8c2330064e" y="173.393325"/>
      </g>
     </g>
    </g>
    <g id="xtick_10">
     <g id="line2d_10">
      <g>
       <use style="stroke:#000000;stroke-width:0.6;" x="81.058017" xlink:href="#m8c2330064e" y="173.393325"/>
      </g>
     </g>
    </g>
    <g id="xtick_11">
     <g id="line2d_11">
      <g>
       <use style="stroke:#000000;stroke-width:0.6;" x="84.688191" xlink:href="#m8c2330064e" y="173.393325"/>
      </g>
     </g>
    </g>
    <g id="xtick_12">
     <g id="line2d_12">
      <g>
       <use style="stroke:#000000;stroke-width:0.6;" x="87.832791" xlink:href="#m8c2330064e" y="173.393325"/>
      </g>
     </g>
    </g>
    <g id="xtick_13">
     <g id="line2d_13">
      <g>
       <use style="stroke:#000000;stroke-width:0.6;" x="90.606525" xlink:href="#m8c2330064e" y="173.393325"/>
      </g>
     </g>
    </g>
    <g id="xtick_14">
     <g id="line2d_14">
      <g>
       <use style="stroke:#000000;stroke-width:0.6;" x="109.410995" xlink:href="#m8c2330064e" y="173.393325"/>
      </g>
     </g>
    </g>
    <g id="xtick_15">
     <g id="line2d_15">
      <g>
       <use style="stroke:#000000;stroke-width:0.6;" x="118.959503" xlink:href="#m8c2330064e" y="173.393325"/>
      </g>
     </g>
    </g>
    <g id="xtick_16">
     <g id="line2d_16">
      <g>
       <use style="stroke:#000000;stroke-width:0.6;" x="125.734277" xlink:href="#m8c2330064e" y="173.393325"/>
      </g>
     </g>
    </g>
    <g id="xtick_17">
     <g id="line2d_17">
      <g>
       <use style="stroke:#000000;stroke-width:0.6;" x="130.9892" xlink:href="#m8c2330064e" y="173.393325"/>
      </g>
     </g>
    </g>
    <g id="xtick_18">
     <g id="line2d_18">
      <g>
       <use style="stroke:#000000;stroke-width:0.6;" x="135.282784" xlink:href="#m8c2330064e" y="173.393325"/>
      </g>
     </g>
    </g>
    <g id="xtick_19">
     <g id="line2d_19">
      <g>
       <use style="stroke:#000000;stroke-width:0.6;" x="138.912959" xlink:href="#m8c2330064e" y="173.393325"/>
      </g>
     </g>
    </g>
    <g id="xtick_20">
     <g id="line2d_20">
      <g>
       <use style="stroke:#000000;stroke-width:0.6;" x="142.057558" xlink:href="#m8c2330064e" y="173.393325"/>
      </g>
     </g>
    </g>
    <g id="xtick_21">
     <g id="line2d_21">
      <g>
       <use style="stroke:#000000;stroke-width:0.6;" x="144.831292" xlink:href="#m8c2330064e" y="173.393325"/>
      </g>
     </g>
    </g>
    <g id="xtick_22">
     <g id="line2d_22">
      <g>
       <use style="stroke:#000000;stroke-width:0.6;" x="163.635763" xlink:href="#m8c2330064e" y="173.393325"/>
      </g>
     </g>
    </g>
    <g id="xtick_23">
     <g id="line2d_23">
      <g>
       <use style="stroke:#000000;stroke-width:0.6;" x="173.18427" xlink:href="#m8c2330064e" y="173.393325"/>
      </g>
     </g>
    </g>
    <g id="xtick_24">
     <g id="line2d_24">
      <g>
       <use style="stroke:#000000;stroke-width:0.6;" x="179.959044" xlink:href="#m8c2330064e" y="173.393325"/>
      </g>
     </g>
    </g>
    <g id="xtick_25">
     <g id="line2d_25">
      <g>
       <use style="stroke:#000000;stroke-width:0.6;" x="185.213967" xlink:href="#m8c2330064e" y="173.393325"/>
      </g>
     </g>
    </g>
    <g id="xtick_26">
     <g id="line2d_26">
      <g>
       <use style="stroke:#000000;stroke-width:0.6;" x="189.507552" xlink:href="#m8c2330064e" y="173.393325"/>
      </g>
     </g>
    </g>
    <g id="xtick_27">
     <g id="line2d_27">
      <g>
       <use style="stroke:#000000;stroke-width:0.6;" x="193.137726" xlink:href="#m8c2330064e" y="173.393325"/>
      </g>
     </g>
    </g>
    <g id="xtick_28">
     <g id="line2d_28">
      <g>
       <use style="stroke:#000000;stroke-width:0.6;" x="196.282326" xlink:href="#m8c2330064e" y="173.393325"/>
      </g>
     </g>
    </g>
    <g id="xtick_29">
     <g id="line2d_29">
      <g>
       <use style="stroke:#000000;stroke-width:0.6;" x="199.056059" xlink:href="#m8c2330064e" y="173.393325"/>
      </g>
     </g>
    </g>
    <g id="text_5">
     <!-- Electron Energy (keV) -->
     <g transform="translate(74.364305 199.088219)scale(0.09 -0.09)">
      <defs>
       <path d="M 60.703125 25.21875 
L 58.90625 25.21875 
C 56.703125 10.5625 55.40625 2.59375 37.796875 2.59375 
L 23.90625 2.59375 
C 19.90625 2.59375 19.703125 3.09375 19.703125 6.484375 
L 19.703125 34 
L 29.09375 34 
C 38.5 34 39.40625 30.609375 39.40625 22.328125 
L 41.203125 22.328125 
L 41.203125 48.21875 
L 39.40625 48.21875 
C 39.40625 39.96875 38.5 36.59375 29.09375 36.59375 
L 19.703125 36.59375 
L 19.703125 61.3125 
C 19.703125 64.703125 19.90625 65.1875 23.90625 65.1875 
L 37.59375 65.1875 
C 53.09375 65.1875 54.90625 59.03125 56.296875 45.828125 
L 58.09375 45.828125 
L 55.703125 67.796875 
L 5.09375 67.796875 
L 5.09375 65.1875 
C 12 65.1875 13.09375 65.1875 13.09375 60.71875 
L 13.09375 7.078125 
C 13.09375 2.59375 12 2.59375 5.09375 2.59375 
L 5.09375 0 
L 57.09375 0 
z
" id="CMR17-69"/>
       <path d="M 15.296875 69 
L 3.40625 67.890625 
L 3.40625 65.296875 
C 9.296875 65.296875 10.203125 64.703125 10.203125 59.921875 
L 10.203125 6.859375 
C 10.203125 3.09375 9.796875 2.59375 3.40625 2.59375 
L 3.40625 0 
C 5.796875 0.1875 10.203125 0.1875 12.703125 0.1875 
C 15.296875 0.1875 19.703125 0.1875 22.09375 0 
L 22.09375 2.59375 
C 15.703125 2.59375 15.296875 2.984375 15.296875 6.859375 
z
" id="CMR17-108"/>
       <path d="M 38.09375 23.484375 
C 38.5 23.890625 38.5 24.09375 38.5 25.09375 
C 38.5 35.171875 33.09375 44 21.703125 44 
C 11.09375 44 2.703125 33.984375 2.703125 21.78125 
C 2.703125 8.65625 12.203125 -1 22.796875 -1 
C 34 -1 38.40625 9.671875 38.40625 11.796875 
C 38.40625 12.5 37.796875 12.5 37.59375 12.5 
C 36.90625 12.5 36.796875 12.296875 36.40625 11.078125 
C 34.203125 4.21875 28.703125 0.796875 23.5 0.796875 
C 19.203125 0.796875 14.90625 3.21875 12.203125 7.65625 
C 9.09375 12.796875 9.09375 18.75 9.09375 23.484375 
z
M 9.203125 25 
C 9.90625 39.234375 17.59375 42.390625 21.59375 42.390625 
C 28.40625 42.390625 33 36.0625 33.09375 25 
z
" id="CMR17-101"/>
       <path d="M 34.90625 35 
C 33 35 30.203125 35 30.203125 31.484375 
C 30.203125 28.6875 32.5 27.890625 33.796875 27.890625 
C 34.5 27.890625 37.40625 28.1875 37.40625 31.6875 
C 37.40625 38.6875 30.59375 44 22.90625 44 
C 12.296875 44 3.296875 34.390625 3.296875 21.546875 
C 3.296875 8.140625 12.703125 -1 22.90625 -1 
C 35.296875 -1 38.40625 10.5625 38.40625 11.671875 
C 38.40625 12.078125 38.296875 12.375 37.59375 12.375 
C 36.90625 12.375 36.796875 12.28125 36.40625 10.96875 
C 33.796875 2.8125 28.09375 0.796875 23.796875 0.796875 
C 17.40625 0.796875 9.703125 6.734375 9.703125 21.640625 
C 9.703125 36.84375 17.09375 42.1875 23 42.1875 
C 26.90625 42.1875 32.703125 40.34375 34.90625 35 
z
" id="CMR17-99"/>
       <path d="M 15.09375 40.390625 
L 29.09375 40.390625 
L 29.09375 43 
L 15.09375 43 
L 15.09375 62 
L 13.296875 62 
C 13.09375 51.4375 9.59375 42.1875 1.09375 41.984375 
L 1.09375 40.390625 
L 9.796875 40.390625 
L 9.796875 12.15625 
C 9.796875 10.234375 9.796875 -1 21.40625 -1 
C 27.296875 -1 30.703125 4.8125 30.703125 12.25 
L 30.703125 17.984375 
L 28.90625 17.984375 
L 28.90625 12.34375 
C 28.90625 5.421875 26.203125 0.796875 22 0.796875 
C 19.09375 0.796875 15.09375 2.796875 15.09375 11.953125 
z
" id="CMR17-116"/>
       <path d="M 15 23.703125 
C 15 33.34375 19.09375 42.390625 26.59375 42.390625 
C 27.296875 42.390625 28 42.296875 28.703125 41.984375 
C 28.703125 41.984375 26.5 41.28125 26.5 38.671875 
C 26.5 36.265625 28.40625 35.265625 29.90625 35.265625 
C 31.09375 35.265625 33.296875 35.96875 33.296875 38.78125 
C 33.296875 41.984375 30.09375 44 26.703125 44 
C 19.09375 44 15.796875 36.5625 14.796875 33.046875 
L 14.703125 33.046875 
L 14.703125 44 
L 3.09375 42.890625 
L 3.09375 40.28125 
C 9 40.28125 9.90625 39.6875 9.90625 34.859375 
L 9.90625 6.921875 
C 9.90625 3.09375 9.5 2.59375 3.09375 2.59375 
L 3.09375 0 
C 5.5 0.1875 10.09375 0.1875 12.703125 0.1875 
C 15.59375 0.1875 20.703125 0.1875 23.40625 0 
L 23.40625 2.59375 
C 16.203125 2.59375 15 2.59375 15 7.109375 
z
" id="CMR17-114"/>
       <path d="M 43.09375 21.1875 
C 43.09375 34 33.796875 44 22.90625 44 
C 12 44 2.703125 34 2.703125 21.1875 
C 2.703125 8.59375 12 -1 22.90625 -1 
C 33.796875 -1 43.09375 8.59375 43.09375 21.1875 
z
M 22.90625 0.796875 
C 18.203125 0.796875 14.203125 3.59375 11.90625 7.5 
C 9.40625 12 9.09375 17.59375 9.09375 22 
C 9.09375 26.1875 9.296875 31.390625 11.90625 35.890625 
C 13.90625 39.1875 17.796875 42.390625 22.90625 42.390625 
C 27.40625 42.390625 31.203125 39.890625 33.59375 36.390625 
C 36.703125 31.6875 36.703125 25.09375 36.703125 22 
C 36.703125 18.09375 36.5 12.09375 33.796875 7.296875 
C 31 2.6875 26.703125 0.796875 22.90625 0.796875 
z
" id="CMR17-111"/>
       <path d="M 41.5 30.53125 
C 41.5 35.65625 40.5 44 28.703125 44 
C 20.796875 44 16.703125 37.875 15.203125 33.84375 
L 15.09375 33.84375 
L 15.09375 44 
L 3.296875 42.890625 
L 3.296875 40.28125 
C 9.203125 40.28125 10.09375 39.6875 10.09375 34.859375 
L 10.09375 6.921875 
C 10.09375 3.09375 9.703125 2.59375 3.296875 2.59375 
L 3.296875 0 
C 5.703125 0.1875 10.09375 0.1875 12.703125 0.1875 
C 15.296875 0.1875 19.796875 0.1875 22.203125 0 
L 22.203125 2.59375 
C 15.796875 2.59375 15.40625 3 15.40625 6.921875 
L 15.40625 26.21875 
C 15.40625 35.453125 21 42.390625 28 42.390625 
C 35.40625 42.390625 36.203125 35.765625 36.203125 30.9375 
L 36.203125 6.921875 
C 36.203125 3.09375 35.796875 2.59375 29.40625 2.59375 
L 29.40625 0 
C 31.796875 0.1875 36.203125 0.1875 38.796875 0.1875 
C 41.40625 0.1875 45.90625 0.1875 48.296875 0 
L 48.296875 2.59375 
C 41.90625 2.59375 41.5 3 41.5 6.921875 
z
" id="CMR17-110"/>
       <path d="M 11.09375 18.203125 
C 13 16.6875 16.296875 15 20.296875 15 
C 28.203125 15 35 21.234375 35 29.609375 
C 35 32.234375 34.203125 36.265625 31.203125 39.390625 
C 34 42.390625 38.09375 43.390625 40.40625 43.390625 
C 40.796875 43.390625 41.40625 43.390625 41.90625 43.09375 
C 41.5 42.984375 40.59375 42.59375 40.59375 40.984375 
C 40.59375 39.6875 41.5 38.796875 42.796875 38.796875 
C 44.296875 38.796875 45.09375 39.796875 45.09375 41.09375 
C 45.09375 42.984375 43.59375 45 40.40625 45 
C 36.40625 45 32.90625 43.09375 30.09375 40.484375 
C 27.09375 43.1875 23.5 44.1875 20.296875 44.1875 
C 12.40625 44.1875 5.59375 37.984375 5.59375 29.609375 
C 5.59375 23.859375 8.90625 20.21875 9.90625 19.21875 
C 6.90625 15.6875 6.90625 11.59375 6.90625 11.09375 
C 6.90625 8.5 7.90625 4.6875 11.296875 2.59375 
C 6.09375 1.28125 2 -2.875 2 -8.078125 
C 2 -15.5625 11.5 -21 22.90625 -21 
C 33.90625 -21 43.796875 -15.765625 43.796875 -7.96875 
C 43.796875 6 29 6 21.296875 6 
C 19 6 14.90625 6 14.40625 6.09375 
C 11.296875 6.59375 9.203125 9.390625 9.203125 12.890625 
C 9.203125 13.796875 9.203125 16 11.09375 18.203125 
z
M 20.296875 16.6875 
C 11.5 16.6875 11.5 27.59375 11.5 29.609375 
C 11.5 31.625 11.5 42.484375 20.296875 42.484375 
C 29.09375 42.484375 29.09375 31.625 29.09375 29.609375 
C 29.09375 27.59375 29.09375 16.6875 20.296875 16.6875 
z
M 22.90625 -19.3125 
C 12.90625 -19.3125 6 -13.796875 6 -8.078125 
C 6 -4.859375 7.703125 -1.84375 9.90625 -0.171875 
C 12.40625 1.59375 13.40625 1.59375 20.203125 1.59375 
C 28.40625 1.59375 39.796875 1.59375 39.796875 -8.078125 
C 39.796875 -13.796875 32.90625 -19.3125 22.90625 -19.3125 
z
" id="CMR17-103"/>
       <path d="M 39 34.109375 
C 41.5 40.296875 46 40.390625 47.40625 40.390625 
L 47.40625 43 
C 45.5 42.890625 43 42.796875 41.09375 42.796875 
C 39 42.796875 35.703125 42.796875 33.703125 43 
L 33.703125 40.390625 
C 37.5 40.09375 37.59375 37.25 37.59375 36.4375 
C 37.59375 35.4375 37.40625 34.921875 36.90625 33.71875 
L 26 6.390625 
L 14.09375 35.9375 
C 13.59375 37.15625 13.59375 37.859375 13.59375 37.96875 
C 13.59375 40.1875 15.90625 40.390625 18.296875 40.390625 
L 18.296875 43 
C 15.90625 42.796875 11.59375 42.796875 9.09375 42.796875 
C 6.40625 42.796875 3.203125 42.796875 1 43 
L 1 40.390625 
C 6.40625 40.390625 7 39.890625 8.296875 36.640625 
L 23.203125 -0.484375 
C 18.703125 -12.421875 16.09375 -19.40625 9.796875 -19.40625 
C 8.703125 -19.40625 6.203125 -19.109375 4.40625 -17.28125 
C 6.703125 -17.078125 7.703125 -15.65625 7.703125 -13.9375 
C 7.703125 -12.21875 6.5 -10.703125 4.5 -10.703125 
C 2.296875 -10.703125 1.203125 -12.21875 1.203125 -14.046875 
C 1.203125 -18.09375 5.296875 -21 9.796875 -21 
C 15.59375 -21 19.203125 -15.359375 21.203125 -10.296875 
z
" id="CMR17-121"/>
       <path d="M 30.59375 -24.40625 
C 30.59375 -24.3125 30.59375 -24.109375 30.296875 -23.8125 
C 25.703125 -19.109375 13.40625 -6.296875 13.40625 24.9375 
C 13.40625 56.171875 25.5 68.875 30.40625 73.890625 
C 30.40625 73.984375 30.59375 74.1875 30.59375 74.484375 
C 30.59375 74.796875 30.296875 75 29.90625 75 
C 28.796875 75 20.296875 67.578125 15.40625 56.5625 
C 10.40625 45.453125 9 34.65625 9 25.046875 
C 9 17.828125 9.703125 5.625 15.703125 -7.296875 
C 20.5 -17.703125 28.703125 -25 29.90625 -25 
C 30.40625 -25 30.59375 -24.8125 30.59375 -24.40625 
z
" id="CMR17-40"/>
       <path d="M 26.09375 26.234375 
C 26 26.4375 25.5 27.03125 25.5 27.328125 
C 25.5 27.53125 32.59375 33.984375 33.5 34.78125 
C 39.203125 39.5625 42.796875 40.046875 45.40625 40.15625 
L 45.40625 42.734375 
C 44.796875 42.734375 44.59375 42.734375 44.5 42.640625 
L 39.59375 42.53125 
C 36.796875 42.53125 32.5 42.53125 29.796875 42.734375 
L 29.796875 40.15625 
C 31.203125 40.046875 32.203125 39.265625 32.203125 37.859375 
C 32.203125 35.875 30.203125 33.984375 30.09375 33.984375 
L 15 20.28125 
L 15 69 
L 3.09375 67.890625 
L 3.09375 65.296875 
C 9 65.296875 9.90625 64.703125 9.90625 59.921875 
L 9.90625 6.859375 
C 9.90625 3.09375 9.5 2.59375 3.09375 2.59375 
L 3.09375 0 
C 5.5 0.1875 9.90625 0.1875 12.40625 0.1875 
C 14.90625 0.1875 19.296875 0.1875 21.703125 0 
L 21.703125 2.59375 
C 15.296875 2.59375 14.90625 2.984375 14.90625 6.859375 
L 14.90625 17.796875 
L 21.796875 24.0625 
L 31.90625 9.15625 
C 33.09375 7.359375 34.09375 5.96875 34.09375 4.671875 
C 34.09375 2.890625 32.296875 2.59375 31.09375 2.59375 
L 31.09375 0 
C 33.5 0.1875 37.796875 0.1875 40.296875 0.1875 
C 42.09375 0.1875 45.796875 0.09375 47.5 0 
L 47.5 2.59375 
C 42.796875 2.59375 41.703125 3.484375 38.703125 7.859375 
z
" id="CMR17-107"/>
       <path d="M 59 58.78125 
C 59.90625 60.984375 61.5 65.296875 68.203125 65.390625 
L 68.203125 68 
C 65.90625 67.796875 63.296875 67.796875 60.796875 67.796875 
C 58.40625 67.796875 54.296875 67.796875 52 68 
L 52 65.390625 
C 57 65.09375 57.203125 61.59375 57.203125 60.984375 
C 57.203125 59.890625 56.90625 59.1875 56.59375 58.390625 
L 36.90625 7 
L 16.296875 60.984375 
C 16 61.6875 15.796875 62.1875 15.796875 62.6875 
C 15.796875 65.390625 19.796875 65.390625 21.90625 65.390625 
L 21.90625 68 
C 18.703125 67.796875 14 67.796875 10.703125 67.796875 
C 8.09375 67.796875 3.40625 67.796875 1 68 
L 1 65.390625 
C 6.796875 65.390625 7.90625 65 9.09375 61.796875 
L 32.90625 -0.40625 
C 33.40625 -1.8125 33.5 -2 34.59375 -2 
C 35.703125 -2 35.796875 -1.8125 36.296875 -0.40625 
z
" id="CMR17-86"/>
       <path d="M 26.296875 24.9375 
C 26.296875 32.140625 25.59375 44.359375 19.59375 57.265625 
C 14.796875 67.6875 6.59375 75 5.40625 75 
C 5.09375 75 4.703125 74.890625 4.703125 74.390625 
C 4.703125 74.1875 4.796875 74.09375 4.90625 73.890625 
C 9.703125 68.875 21.90625 56.171875 21.90625 25.046875 
C 21.90625 -6.1875 9.796875 -18.90625 4.90625 -23.90625 
C 4.796875 -24.109375 4.703125 -24.203125 4.703125 -24.40625 
C 4.703125 -24.90625 5.09375 -25 5.40625 -25 
C 6.5 -25 15 -17.609375 19.90625 -6.59375 
C 24.90625 4.515625 26.296875 15.328125 26.296875 24.9375 
z
" id="CMR17-41"/>
      </defs>
      <use transform="scale(0.996264)" xlink:href="#CMR17-69"/>
      <use transform="translate(62.586301 0)scale(0.996264)" xlink:href="#CMR17-108"/>
      <use transform="translate(87.457359 0)scale(0.996264)" xlink:href="#CMR17-101"/>
      <use transform="translate(127.943019 0)scale(0.996264)" xlink:href="#CMR17-99"/>
      <use transform="translate(168.42868 0)scale(0.996264)" xlink:href="#CMR17-116"/>
      <use transform="translate(203.709448 0)scale(0.996264)" xlink:href="#CMR17-114"/>
      <use transform="translate(238.990216 0)scale(0.996264)" xlink:href="#CMR17-111"/>
      <use transform="translate(284.680693 0)scale(0.996264)" xlink:href="#CMR17-110"/>
      <use transform="translate(365.652029 0)scale(0.996264)" xlink:href="#CMR17-69"/>
      <use transform="translate(428.238329 0)scale(0.996264)" xlink:href="#CMR17-110"/>
      <use transform="translate(479.133699 0)scale(0.996264)" xlink:href="#CMR17-101"/>
      <use transform="translate(519.61936 0)scale(0.996264)" xlink:href="#CMR17-114"/>
      <use transform="translate(554.900127 0)scale(0.996264)" xlink:href="#CMR17-103"/>
      <use transform="translate(600.590604 0)scale(0.996264)" xlink:href="#CMR17-121"/>
      <use transform="translate(678.959487 0)scale(0.996264)" xlink:href="#CMR17-40"/>
      <use transform="translate(714.240254 0)scale(0.996264)" xlink:href="#CMR17-107"/>
      <use transform="translate(759.930716 0)scale(0.996264)" xlink:href="#CMR17-101"/>
      <use transform="translate(800.416377 0)scale(0.996264)" xlink:href="#CMR17-86"/>
      <use transform="translate(869.488807 0)scale(0.996264)" xlink:href="#CMR17-41"/>
     </g>
    </g>
   </g>
   <g id="matplotlib.axis_2">
    <g id="ytick_1">
     <g id="line2d_30">
      <defs>
       <path d="M 0 0 
L -3.5 0 
" id="m099a638134" style="stroke:#000000;stroke-width:0.8;"/>
      </defs>
      <g>
       <use style="stroke:#000000;stroke-width:0.8;" x="36.381757" xlink:href="#m099a638134" y="173.393325"/>
      </g>
     </g>
     <g id="text_6">
      <!-- $\mathdefault{0}$ -->
      <g transform="translate(24.774067 176.50665)scale(0.09 -0.09)">
       <use transform="scale(0.996264)" xlink:href="#CMR17-48"/>
      </g>
     </g>
    </g>
    <g id="ytick_2">
     <g id="line2d_31">
      <g>
       <use style="stroke:#000000;stroke-width:0.8;" x="36.381757" xlink:href="#m099a638134" y="140.777325"/>
      </g>
     </g>
     <g id="text_7">
      <!-- $\mathdefault{5}$ -->
      <g transform="translate(24.774067 143.89065)scale(0.09 -0.09)">
       <defs>
        <path d="M 11.40625 58.59375 
C 12.40625 58.1875 16.5 56.890625 20.703125 56.890625 
C 30 56.890625 35.09375 61.890625 38 64.6875 
C 38 65.484375 38 66 37.40625 66 
C 37.296875 66 37.09375 66 36.296875 65.59375 
C 32.796875 64.09375 28.703125 63 23.703125 63 
C 20.703125 63 16.203125 63.359375 11.296875 65.484375 
C 10.203125 66 10 66 9.90625 66 
C 9.40625 66 9.296875 65.890625 9.296875 63.90625 
L 9.296875 34.859375 
C 9.296875 33.015625 9.296875 32.5 10.296875 32.5 
C 10.796875 32.5 11 32.703125 11.5 33.421875 
C 14.703125 38.046875 19.09375 40 24.09375 40 
C 27.59375 40 35.09375 37.734375 35.09375 20.203125 
C 35.09375 16.984375 35.09375 11.1875 32.09375 6.59375 
C 29.59375 2.484375 25.703125 0.390625 21.40625 0.390625 
C 14.796875 0.390625 8.09375 4.984375 6.296875 12.6875 
C 6.703125 12.59375 7.5 12.390625 7.90625 12.390625 
C 9.203125 12.390625 11.703125 13.09375 11.703125 16.1875 
C 11.703125 18.890625 9.796875 20 7.90625 20 
C 5.59375 20 4.09375 18.59375 4.09375 15.796875 
C 4.09375 7.09375 11 -2 21.59375 -2 
C 31.90625 -2 41.703125 6.890625 41.703125 19.796875 
C 41.703125 32.09375 33.90625 41.59375 24.203125 41.59375 
C 19.09375 41.59375 14.796875 39.6875 11.40625 36 
z
" id="CMR17-53"/>
       </defs>
       <use transform="scale(0.996264)" xlink:href="#CMR17-53"/>
      </g>
     </g>
    </g>
    <g id="ytick_3">
     <g id="line2d_32">
      <g>
       <use style="stroke:#000000;stroke-width:0.8;" x="36.381757" xlink:href="#m099a638134" y="108.161325"/>
      </g>
     </g>
     <g id="text_8">
      <!-- $\mathdefault{10}$ -->
      <g transform="translate(20.166376 111.27465)scale(0.09 -0.09)">
       <use transform="scale(0.996264)" xlink:href="#CMR17-49"/>
       <use transform="translate(45.690477 0)scale(0.996264)" xlink:href="#CMR17-48"/>
      </g>
     </g>
    </g>
    <g id="ytick_4">
     <g id="line2d_33">
      <g>
       <use style="stroke:#000000;stroke-width:0.8;" x="36.381757" xlink:href="#m099a638134" y="75.545325"/>
      </g>
     </g>
     <g id="text_9">
      <!-- $\mathdefault{15}$ -->
      <g transform="translate(20.166376 78.65865)scale(0.09 -0.09)">
       <use transform="scale(0.996264)" xlink:href="#CMR17-49"/>
       <use transform="translate(45.690477 0)scale(0.996264)" xlink:href="#CMR17-53"/>
      </g>
     </g>
    </g>
    <g id="ytick_5">
     <g id="line2d_34">
      <g>
       <use style="stroke:#000000;stroke-width:0.8;" x="36.381757" xlink:href="#m099a638134" y="42.929325"/>
      </g>
     </g>
     <g id="text_10">
      <!-- $\mathdefault{20}$ -->
      <g transform="translate(20.166376 46.04265)scale(0.09 -0.09)">
       <use transform="scale(0.996264)" xlink:href="#CMR17-50"/>
       <use transform="translate(45.690477 0)scale(0.996264)" xlink:href="#CMR17-48"/>
      </g>
     </g>
    </g>
    <g id="ytick_6">
     <g id="line2d_35">
      <g>
       <use style="stroke:#000000;stroke-width:0.8;" x="36.381757" xlink:href="#m099a638134" y="10.313325"/>
      </g>
     </g>
     <g id="text_11">
      <!-- $\mathdefault{25}$ -->
      <g transform="translate(20.166376 13.42665)scale(0.09 -0.09)">
       <use transform="scale(0.996264)" xlink:href="#CMR17-50"/>
       <use transform="translate(45.690477 0)scale(0.996264)" xlink:href="#CMR17-53"/>
      </g>
     </g>
    </g>
    <g id="text_12">
     <!-- SSB/DSB -->
     <g transform="translate(13.924782 111.88292)rotate(-90)scale(0.09 -0.09)">
      <defs>
       <path d="M 43.796875 67.984375 
C 43.796875 69.796875 43.703125 69.890625 43.09375 69.890625 
C 42.5 69.890625 42.296875 69.484375 41.90625 68.59375 
L 38.90625 61.953125 
C 35.09375 67.5 29.296875 70 23 70 
C 12.796875 70 4.59375 61.84375 4.59375 51.578125 
C 4.59375 48.453125 5.296875 44.015625 8.703125 39.78125 
C 12.40625 35.15625 15.90625 34.34375 23.90625 32.234375 
C 26.90625 31.421875 31.90625 30.109375 32.90625 29.703125 
C 38.59375 27.296875 41.59375 21.25 41.59375 15.609375 
C 41.59375 8.34375 36.5 0.59375 27.796875 0.59375 
C 17.09375 0.59375 7.09375 6.640625 6.40625 20.75 
C 6.296875 22.359375 6.203125 22.453125 5.5 22.453125 
C 4.703125 22.453125 4.59375 22.359375 4.59375 20.34375 
L 4.59375 0 
C 4.59375 -1.8125 4.703125 -1.90625 5.296875 -1.90625 
C 6 -1.90625 6.203125 -1.40625 7.59375 1.703125 
C 7.703125 2 7.703125 2.203125 9.59375 6.03125 
C 14.59375 -0.609375 23 -2 27.796875 -2 
C 38.703125 -2 46.40625 7.140625 46.40625 17.828125 
C 46.40625 23.0625 44.5 27.09375 43.40625 28.90625 
C 39.203125 35.359375 34.703125 36.5625 29.90625 37.765625 
C 29.203125 38.078125 29 38.078125 23.40625 39.484375 
C 18 40.890625 15.703125 41.59375 13.203125 44.3125 
C 10.40625 47.4375 9.40625 50.671875 9.40625 53.890625 
C 9.40625 60.4375 14.59375 67.59375 23.09375 67.59375 
C 33.703125 67.59375 40.296875 60.03125 41.796875 47.4375 
C 42.09375 45.625 42.203125 45.53125 42.90625 45.53125 
C 43.796875 45.53125 43.796875 45.828125 43.796875 47.546875 
z
" id="CMR17-83"/>
       <path d="M 5.203125 68 
L 5.203125 65.390625 
C 12.09375 65.390625 13.203125 65.390625 13.203125 60.890625 
L 13.203125 7.046875 
C 13.203125 2.59375 12.09375 2.59375 5.203125 2.59375 
L 5.203125 0 
L 39.59375 0 
C 52.40625 0 60.703125 9.03125 60.703125 18.046875 
C 60.703125 26.96875 52.5 34.59375 41.796875 35.296875 
C 51.40625 37.1875 58.09375 43.59375 58.09375 51.1875 
C 58.09375 59.5 49.90625 68 37 68 
z
M 19.5 36 
L 19.5 61.5 
C 19.5 64.890625 19.703125 65.390625 23.703125 65.390625 
L 36.5 65.390625 
C 46.40625 65.390625 50.796875 57.390625 50.796875 51.1875 
C 50.796875 43.59375 44.703125 36 33.90625 36 
z
M 23.703125 2.59375 
C 19.703125 2.59375 19.5 3.09375 19.5 6.453125 
L 19.5 34.390625 
L 38 34.390625 
C 48.296875 34.390625 53.296875 25.375 53.296875 18.140625 
C 53.296875 10.90625 47.59375 2.59375 36.703125 2.59375 
z
" id="CMR17-66"/>
       <path d="M 40.703125 71.484375 
C 41.203125 72.78125 41.203125 72.984375 41.203125 73.1875 
C 41.203125 74.390625 40.296875 75 39.5 75 
C 38.296875 75 37.90625 74.1875 37.5 72.984375 
L 5.09375 -21.5 
C 4.59375 -22.8125 4.59375 -23 4.59375 -23.203125 
C 4.59375 -24.40625 5.5 -25 6.296875 -25 
C 7.5 -25 7.90625 -24.203125 8.296875 -23 
z
" id="CMR17-47"/>
       <path d="M 5.203125 68 
L 5.203125 65.390625 
C 12.09375 65.390625 13.203125 65.390625 13.203125 60.90625 
L 13.203125 7.078125 
C 13.203125 2.59375 12.09375 2.59375 5.203125 2.59375 
L 5.203125 0 
L 37 0 
C 53.09375 0 66 14.734375 66 33.4375 
C 66 52.25 53.296875 68 37 68 
z
M 23.796875 2.59375 
C 19.796875 2.59375 19.59375 3.09375 19.59375 6.46875 
L 19.59375 61.5 
C 19.59375 64.890625 19.796875 65.390625 23.796875 65.390625 
L 35 65.390625 
C 43.296875 65.390625 58.59375 60.515625 58.59375 33.4375 
C 58.59375 19.40625 54.5 13.734375 52.59375 11.046875 
C 50.203125 7.96875 44.5 2.59375 35 2.59375 
z
" id="CMR17-68"/>
      </defs>
      <use transform="scale(0.996264)" xlink:href="#CMR17-83"/>
      <use transform="translate(50.89537 0)scale(0.996264)" xlink:href="#CMR17-83"/>
      <use transform="translate(101.79074 0)scale(0.996264)" xlink:href="#CMR17-66"/>
      <use transform="translate(166.979494 0)scale(0.996264)" xlink:href="#CMR17-47"/>
      <use transform="translate(212.669971 0)scale(0.996264)" xlink:href="#CMR17-68"/>
      <use transform="translate(283.063527 0)scale(0.996264)" xlink:href="#CMR17-83"/>
      <use transform="translate(333.958897 0)scale(0.996264)" xlink:href="#CMR17-66"/>
     </g>
    </g>
   </g>
   <g id="line2d_36">
    <path clip-path="url(#p0bab17cf3a)" d="M 38.862947 124.055045 
L 55.186228 112.204252 
L 71.50951 101.246891 
L 84.688191 86.458568 
L 93.087714 69.289357 
L 109.410995 69.557082 
L 125.734277 72.001976 
L 138.912959 63.676283 
L 147.312481 64.105202 
L 163.635763 60.211168 
L 179.959044 73.707296 
L 193.137726 62.768851 
L 201.300568 59.28348 
" style="fill:none;stroke:#1f77b4;stroke-dasharray:5.55,2.4;stroke-dashoffset:0;stroke-width:1.5;"/>
    <defs>
     <path d="M -3 0 
L 3 0 
M 0 3 
L 0 -3 
" id="mdf4bbf4094" style="stroke:#1f77b4;"/>
    </defs>
    <g clip-path="url(#p0bab17cf3a)">
     <use style="fill:#1f77b4;stroke:#1f77b4;" x="38.862947" xlink:href="#mdf4bbf4094" y="124.055045"/>
     <use style="fill:#1f77b4;stroke:#1f77b4;" x="55.186228" xlink:href="#mdf4bbf4094" y="112.204252"/>
     <use style="fill:#1f77b4;stroke:#1f77b4;" x="71.50951" xlink:href="#mdf4bbf4094" y="101.246891"/>
     <use style="fill:#1f77b4;stroke:#1f77b4;" x="84.688191" xlink:href="#mdf4bbf4094" y="86.458568"/>
     <use style="fill:#1f77b4;stroke:#1f77b4;" x="93.087714" xlink:href="#mdf4bbf4094" y="69.289357"/>
     <use style="fill:#1f77b4;stroke:#1f77b4;" x="109.410995" xlink:href="#mdf4bbf4094" y="69.557082"/>
     <use style="fill:#1f77b4;stroke:#1f77b4;" x="125.734277" xlink:href="#mdf4bbf4094" y="72.001976"/>
     <use style="fill:#1f77b4;stroke:#1f77b4;" x="138.912959" xlink:href="#mdf4bbf4094" y="63.676283"/>
     <use style="fill:#1f77b4;stroke:#1f77b4;" x="147.312481" xlink:href="#mdf4bbf4094" y="64.105202"/>
     <use style="fill:#1f77b4;stroke:#1f77b4;" x="163.635763" xlink:href="#mdf4bbf4094" y="60.211168"/>
     <use style="fill:#1f77b4;stroke:#1f77b4;" x="179.959044" xlink:href="#mdf4bbf4094" y="73.707296"/>
     <use style="fill:#1f77b4;stroke:#1f77b4;" x="193.137726" xlink:href="#mdf4bbf4094" y="62.768851"/>
     <use style="fill:#1f77b4;stroke:#1f77b4;" x="201.300568" xlink:href="#mdf4bbf4094" y="59.28348"/>
    </g>
   </g>
   <g id="line2d_37">
    <path clip-path="url(#p0bab17cf3a)" d="M 38.862947 122.308515 
L 55.186228 114.662454 
L 71.50951 103.808229 
L 84.688191 95.29387 
L 93.087714 88.424463 
L 109.410995 93.854042 
L 125.734277 82.044718 
L 138.912959 88.230281 
L 147.312481 76.849965 
L 163.635763 87.13837 
L 179.959044 85.847482 
L 193.137726 76.485606 
L 201.300568 73.631332 
" style="fill:none;stroke:#ff7f0e;stroke-dasharray:5.55,2.4;stroke-dashoffset:0;stroke-width:1.5;"/>
    <defs>
     <path d="M -3 0 
L 3 0 
M 0 3 
L 0 -3 
" id="m2a20962cfc" style="stroke:#ff7f0e;"/>
    </defs>
    <g clip-path="url(#p0bab17cf3a)">
     <use style="fill:#ff7f0e;stroke:#ff7f0e;" x="38.862947" xlink:href="#m2a20962cfc" y="122.308515"/>
     <use style="fill:#ff7f0e;stroke:#ff7f0e;" x="55.186228" xlink:href="#m2a20962cfc" y="114.662454"/>
     <use style="fill:#ff7f0e;stroke:#ff7f0e;" x="71.50951" xlink:href="#m2a20962cfc" y="103.808229"/>
     <use style="fill:#ff7f0e;stroke:#ff7f0e;" x="84.688191" xlink:href="#m2a20962cfc" y="95.29387"/>
     <use style="fill:#ff7f0e;stroke:#ff7f0e;" x="93.087714" xlink:href="#m2a20962cfc" y="88.424463"/>
     <use style="fill:#ff7f0e;stroke:#ff7f0e;" x="109.410995" xlink:href="#m2a20962cfc" y="93.854042"/>
     <use style="fill:#ff7f0e;stroke:#ff7f0e;" x="125.734277" xlink:href="#m2a20962cfc" y="82.044718"/>
     <use style="fill:#ff7f0e;stroke:#ff7f0e;" x="138.912959" xlink:href="#m2a20962cfc" y="88.230281"/>
     <use style="fill:#ff7f0e;stroke:#ff7f0e;" x="147.312481" xlink:href="#m2a20962cfc" y="76.849965"/>
     <use style="fill:#ff7f0e;stroke:#ff7f0e;" x="163.635763" xlink:href="#m2a20962cfc" y="87.13837"/>
     <use style="fill:#ff7f0e;stroke:#ff7f0e;" x="179.959044" xlink:href="#m2a20962cfc" y="85.847482"/>
     <use style="fill:#ff7f0e;stroke:#ff7f0e;" x="193.137726" xlink:href="#m2a20962cfc" y="76.485606"/>
     <use style="fill:#ff7f0e;stroke:#ff7f0e;" x="201.300568" xlink:href="#m2a20962cfc" y="73.631332"/>
    </g>
   </g>
   <g id="line2d_38">
    <path clip-path="url(#p0bab17cf3a)" d="M -1 85.665364 
L 10.509968 102.488977 
L 22.539665 91.853325 
L 38.862947 95.114925 
L 48.411454 86.417325 
L 74.283243 74.420635 
" style="fill:none;stroke:#d62728;stroke-dasharray:1.5,2.475;stroke-dashoffset:0;stroke-width:1.5;"/>
    <defs>
     <path d="M 0 -3 
L -0.673542 -0.927051 
L -2.85317 -0.927051 
L -1.089814 0.354102 
L -1.763356 2.427051 
L -0 1.145898 
L 1.763356 2.427051 
L 1.089814 0.354102 
L 2.85317 -0.927051 
L 0.673542 -0.927051 
z
" id="m56e2444530" style="stroke:#d62728;stroke-linejoin:bevel;"/>
    </defs>
    <g clip-path="url(#p0bab17cf3a)">
     <use style="fill:#d62728;stroke:#d62728;stroke-linejoin:bevel;" x="-1" xlink:href="#m56e2444530" y="85.665364"/>
     <use style="fill:#d62728;stroke:#d62728;stroke-linejoin:bevel;" x="10.509968" xlink:href="#m56e2444530" y="102.488977"/>
     <use style="fill:#d62728;stroke:#d62728;stroke-linejoin:bevel;" x="22.539665" xlink:href="#m56e2444530" y="91.853325"/>
     <use style="fill:#d62728;stroke:#d62728;stroke-linejoin:bevel;" x="38.862947" xlink:href="#m56e2444530" y="95.114925"/>
     <use style="fill:#d62728;stroke:#d62728;stroke-linejoin:bevel;" x="48.411454" xlink:href="#m56e2444530" y="86.417325"/>
     <use style="fill:#d62728;stroke:#d62728;stroke-linejoin:bevel;" x="74.283243" xlink:href="#m56e2444530" y="74.420635"/>
    </g>
   </g>
   <g id="line2d_39">
    <defs>
     <path d="M 0 3 
C 0.795609 3 1.55874 2.683901 2.12132 2.12132 
C 2.683901 1.55874 3 0.795609 3 0 
C 3 -0.795609 2.683901 -1.55874 2.12132 -2.12132 
C 1.55874 -2.683901 0.795609 -3 0 -3 
C -0.795609 -3 -1.55874 -2.683901 -2.12132 -2.12132 
C -2.683901 -1.55874 -3 -0.795609 -3 0 
C -3 0.795609 -2.683901 1.55874 -2.12132 2.12132 
C -1.55874 2.683901 -0.795609 3 0 3 
z
" id="mf6c0bd10ec" style="stroke:#2ca02c;"/>
    </defs>
    <g clip-path="url(#p0bab17cf3a)">
     <use style="fill:#2ca02c;stroke:#2ca02c;" x="179.959044" xlink:href="#mf6c0bd10ec" y="16.836525"/>
    </g>
   </g>
   <g id="line2d_40">
    <path clip-path="url(#p0bab17cf3a)" d="M 55.186228 110.770605 
L 71.50951 97.724205 
" style="fill:none;stroke:#9467bd;stroke-dasharray:1.5,2.475;stroke-dashoffset:0;stroke-width:1.5;"/>
    <defs>
     <path d="M 0 3 
C 0.795609 3 1.55874 2.683901 2.12132 2.12132 
C 2.683901 1.55874 3 0.795609 3 0 
C 3 -0.795609 2.683901 -1.55874 2.12132 -2.12132 
C 1.55874 -2.683901 0.795609 -3 0 -3 
C -0.795609 -3 -1.55874 -2.683901 -2.12132 -2.12132 
C -2.683901 -1.55874 -3 -0.795609 -3 0 
C -3 0.795609 -2.683901 1.55874 -2.12132 2.12132 
C -1.55874 2.683901 -0.795609 3 0 3 
z
" id="m25d30ff866" style="stroke:#9467bd;"/>
    </defs>
    <g clip-path="url(#p0bab17cf3a)">
     <use style="fill:#9467bd;stroke:#9467bd;" x="55.186228" xlink:href="#m25d30ff866" y="110.770605"/>
     <use style="fill:#9467bd;stroke:#9467bd;" x="71.50951" xlink:href="#m25d30ff866" y="97.724205"/>
    </g>
   </g>
   <g id="line2d_41">
    <defs>
     <path d="M -0 3 
L 3 -3 
L -3 -3 
z
" id="m184cf2ebe4" style="stroke:#8c564b;stroke-linejoin:miter;"/>
    </defs>
    <g clip-path="url(#p0bab17cf3a)">
     <use style="fill:#8c564b;stroke:#8c564b;stroke-linejoin:miter;" x="93.087714" xlink:href="#m184cf2ebe4" y="23.359725"/>
    </g>
   </g>
   <g id="line2d_42">
    <defs>
     <path d="M 0 -3 
L -3 3 
L 3 3 
z
" id="m289f727c9c" style="stroke:#e377c2;stroke-linejoin:miter;"/>
    </defs>
    <g clip-path="url(#p0bab17cf3a)">
     <use style="fill:#e377c2;stroke:#e377c2;stroke-linejoin:miter;" x="93.087714" xlink:href="#m289f727c9c" y="95.114925"/>
    </g>
   </g>
   <g id="patch_3">
    <path d="M 36.381757 173.393325 
L 36.381757 10.313325 
" style="fill:none;stroke:#000000;stroke-linecap:square;stroke-linejoin:miter;stroke-width:0.8;"/>
   </g>
   <g id="patch_4">
    <path d="M 203.781757 173.393325 
L 203.781757 10.313325 
" style="fill:none;stroke:#000000;stroke-linecap:square;stroke-linejoin:miter;stroke-width:0.8;"/>
   </g>
   <g id="patch_5">
    <path d="M 36.381757 173.393325 
L 203.781757 173.393325 
" style="fill:none;stroke:#000000;stroke-linecap:square;stroke-linejoin:miter;stroke-width:0.8;"/>
   </g>
   <g id="patch_6">
    <path d="M 36.381757 10.313325 
L 203.781757 10.313325 
" style="fill:none;stroke:#000000;stroke-linecap:square;stroke-linejoin:miter;stroke-width:0.8;"/>
   </g>
   <g id="patch_7">
    <path d="M 187.211203 16.836525 
Q 192.13451 16.836525 195.939784 16.836525 
" style="fill:none;stroke:#000000;stroke-linecap:round;"/>
    <path d="M 192.339784 15.036525 
L 195.939784 16.836525 
L 192.339784 18.636525 
" style="fill:none;stroke:#000000;stroke-linecap:round;"/>
   </g>
   <g id="legend_1">
    <g id="line2d_43">
     <path d="M 43.142856 126.921772 
L 63.142856 126.921772 
" style="fill:none;stroke:#1f77b4;stroke-dasharray:5.55,2.4;stroke-dashoffset:0;stroke-width:1.5;"/>
    </g>
    <g id="line2d_44">
     <g>
      <use style="fill:#1f77b4;stroke:#1f77b4;" x="53.142856" xlink:href="#mdf4bbf4094" y="126.921772"/>
     </g>
    </g>
    <g id="text_13">
     <!-- G4DNA 4 nm -->
     <g transform="translate(71.142856 130.421772)scale(0.1 -0.1)">
      <defs>
       <path d="M 62.09375 19.65625 
C 62.09375 23.484375 62.40625 24 68.59375 24 
L 68.59375 26.59375 
C 66.203125 26.390625 60.796875 26.390625 58.09375 26.390625 
C 55.296875 26.390625 47.5 26.5 43.703125 26.59375 
L 43.703125 24 
L 46.703125 24 
C 55.296875 24 55.5 22.875 55.5 19.25 
L 55.5 12.59375 
C 55.5 1.5 42.5 0.59375 39.40625 0.59375 
C 29.09375 0.59375 12.203125 7.75 12.203125 34.046875 
C 12.203125 60.34375 28.796875 67.390625 38.5 67.390625 
C 49.796875 67.390625 58 57.515625 59.90625 43.515625 
C 60.09375 42.3125 60.09375 42.109375 61 42.109375 
C 62.09375 42.109375 62.09375 42.3125 62.09375 44.125 
L 62.09375 67.984375 
C 62.09375 69.796875 62 69.890625 61.40625 69.890625 
C 61 69.890625 60.90625 69.796875 60.203125 68.59375 
L 55.796875 60.140625 
C 50.90625 66.390625 44.90625 70 37.203125 70 
C 20.09375 70 4.59375 54.796875 4.59375 34.046875 
C 4.59375 13.40625 19.796875 -2 37.40625 -2 
C 45.5 -2 53.40625 0.890625 56.5 6.640625 
C 58.203125 2.515625 61 -0.3125 61.5 -0.3125 
C 62 -0.3125 62.09375 -0.203125 62.09375 1.59375 
z
" id="CMR17-71"/>
       <path d="M 33.59375 64.796875 
C 33.59375 66.890625 33.5 67 31.703125 67 
L 2 19.59375 
L 2 17 
L 27.796875 17 
L 27.796875 7.1875 
C 27.796875 3.59375 27.59375 2.59375 20.59375 2.59375 
L 18.703125 2.59375 
L 18.703125 0 
C 21.90625 0.1875 27.296875 0.1875 30.703125 0.1875 
C 34.09375 0.1875 39.5 0.1875 42.703125 0 
L 42.703125 2.59375 
L 40.796875 2.59375 
C 33.796875 2.59375 33.59375 3.59375 33.59375 7.1875 
L 33.59375 17 
L 43.796875 17 
L 43.796875 19.59375 
L 33.59375 19.59375 
z
M 28.09375 58.171875 
L 28.09375 19.59375 
L 4 19.59375 
z
" id="CMR17-52"/>
       <path d="M 20.5 66.796875 
C 19.796875 67.890625 19.703125 68 17.796875 68 
L 5.09375 68 
L 5.09375 65.390625 
L 7 65.390625 
C 11 65.390625 12.796875 64.890625 13.09375 64.796875 
L 13.09375 9.75 
C 13.09375 7.265625 13.09375 2.59375 5.09375 2.59375 
L 5.09375 0 
C 7.40625 0.1875 11.59375 0.1875 14.09375 0.1875 
C 16.59375 0.1875 20.796875 0.1875 23.09375 0 
L 23.09375 2.59375 
C 15.09375 2.59375 15.09375 7.265625 15.09375 9.75 
L 15.09375 63.390625 
C 15.796875 62.796875 15.796875 62.609375 16.5 61.609375 
L 53.59375 1.1875 
C 54.296875 0 54.59375 0 55.09375 0 
C 56.09375 0 56.09375 0.296875 56.09375 2.1875 
L 56.09375 58.21875 
C 56.09375 60.703125 56.09375 65.390625 64.09375 65.390625 
L 64.09375 68 
C 61.796875 67.796875 57.59375 67.796875 55.09375 67.796875 
C 52.59375 67.796875 48.40625 67.796875 46.09375 68 
L 46.09375 65.390625 
C 54.09375 65.390625 54.09375 60.703125 54.09375 58.21875 
L 54.09375 12.140625 
z
" id="CMR17-78"/>
       <path d="M 36.296875 69.390625 
C 35.796875 70.6875 35.59375 71 34.59375 71 
C 33.59375 71 33.40625 70.6875 32.90625 69.390625 
L 11.703125 9.0625 
C 9.796875 3.6875 5.796875 2.59375 2.296875 2.59375 
L 2.296875 0 
C 4.09375 0.1875 8.09375 0.1875 10 0.1875 
C 12.5 0.1875 16.5 0.1875 18.90625 0 
L 18.90625 2.59375 
C 14.203125 2.796875 13.5 5.96875 13.5 7.171875 
C 13.5 8.0625 13.703125 8.5625 13.90625 9.15625 
L 19.203125 24 
L 45.40625 24 
L 51.40625 7.078125 
C 51.90625 5.875 51.90625 5.671875 51.90625 5.28125 
C 51.90625 2.59375 47.59375 2.59375 45.703125 2.59375 
L 45.703125 0 
C 48.59375 0.1875 53.796875 0.1875 56.90625 0.1875 
C 59.5 0.1875 64.5 0.1875 66.90625 0 
L 66.90625 2.59375 
C 61.59375 2.59375 59.796875 2.59375 58.5 6.28125 
z
M 32.296875 61.3125 
L 44.5 26.59375 
L 20.09375 26.59375 
z
" id="CMR17-65"/>
       <path d="M 67.59375 30.53125 
C 67.59375 35.5625 66.703125 44 54.796875 44 
C 48 44 43.296875 39.375 41.5 33.953125 
L 41.40625 33.953125 
C 40.203125 42.1875 34.296875 44 28.703125 44 
C 20.796875 44 16.703125 37.875 15.203125 33.84375 
L 15.09375 33.84375 
L 15.09375 44 
L 3.296875 42.890625 
L 3.296875 40.28125 
C 9.203125 40.28125 10.09375 39.6875 10.09375 34.859375 
L 10.09375 6.921875 
C 10.09375 3.09375 9.703125 2.59375 3.296875 2.59375 
L 3.296875 0 
C 5.703125 0.1875 10.09375 0.1875 12.703125 0.1875 
C 15.296875 0.1875 19.796875 0.1875 22.203125 0 
L 22.203125 2.59375 
C 15.796875 2.59375 15.40625 3 15.40625 6.921875 
L 15.40625 26.21875 
C 15.40625 35.453125 21 42.390625 28 42.390625 
C 35.40625 42.390625 36.203125 35.765625 36.203125 30.9375 
L 36.203125 6.921875 
C 36.203125 3.09375 35.796875 2.59375 29.40625 2.59375 
L 29.40625 0 
C 31.796875 0.1875 36.203125 0.1875 38.796875 0.1875 
C 41.40625 0.1875 45.90625 0.1875 48.296875 0 
L 48.296875 2.59375 
C 41.90625 2.59375 41.5 3 41.5 6.921875 
L 41.5 26.21875 
C 41.5 35.453125 47.09375 42.390625 54.09375 42.390625 
C 61.5 42.390625 62.296875 35.765625 62.296875 30.9375 
L 62.296875 6.921875 
C 62.296875 3.09375 61.90625 2.59375 55.5 2.59375 
L 55.5 0 
C 57.90625 0.1875 62.296875 0.1875 64.90625 0.1875 
C 67.5 0.1875 72 0.1875 74.40625 0 
L 74.40625 2.59375 
C 68 2.59375 67.59375 3 67.59375 6.921875 
z
" id="CMR17-109"/>
      </defs>
      <use transform="scale(0.996264)" xlink:href="#CMR17-71"/>
      <use transform="translate(72.355346 0)scale(0.996264)" xlink:href="#CMR17-52"/>
      <use transform="translate(118.045823 0)scale(0.996264)" xlink:href="#CMR17-68"/>
      <use transform="translate(188.439379 0)scale(0.996264)" xlink:href="#CMR17-78"/>
      <use transform="translate(257.511809 0)scale(0.996264)" xlink:href="#CMR17-65"/>
      <use transform="translate(356.660205 0)scale(0.996264)" xlink:href="#CMR17-52"/>
      <use transform="translate(432.426648 0)scale(0.996264)" xlink:href="#CMR17-110"/>
      <use transform="translate(483.322018 0)scale(0.996264)" xlink:href="#CMR17-109"/>
     </g>
    </g>
    <g id="line2d_45">
     <path d="M 43.142856 138.599897 
L 63.142856 138.599897 
" style="fill:none;stroke:#ff7f0e;stroke-dasharray:5.55,2.4;stroke-dashoffset:0;stroke-width:1.5;"/>
    </g>
    <g id="line2d_46">
     <g>
      <use style="fill:#ff7f0e;stroke:#ff7f0e;" x="53.142856" xlink:href="#m2a20962cfc" y="138.599897"/>
     </g>
    </g>
    <g id="text_14">
     <!-- G4DNA 1 nm -->
     <g transform="translate(71.142856 142.099897)scale(0.1 -0.1)">
      <use transform="scale(0.996264)" xlink:href="#CMR17-71"/>
      <use transform="translate(72.355346 0)scale(0.996264)" xlink:href="#CMR17-52"/>
      <use transform="translate(118.045823 0)scale(0.996264)" xlink:href="#CMR17-68"/>
      <use transform="translate(188.439379 0)scale(0.996264)" xlink:href="#CMR17-78"/>
      <use transform="translate(257.511809 0)scale(0.996264)" xlink:href="#CMR17-65"/>
      <use transform="translate(356.660205 0)scale(0.996264)" xlink:href="#CMR17-49"/>
      <use transform="translate(432.426648 0)scale(0.996264)" xlink:href="#CMR17-110"/>
      <use transform="translate(483.322018 0)scale(0.996264)" xlink:href="#CMR17-109"/>
     </g>
    </g>
    <g id="line2d_47">
     <path d="M 43.142856 150.278022 
L 63.142856 150.278022 
" style="fill:none;stroke:#d62728;stroke-dasharray:1.5,2.475;stroke-dashoffset:0;stroke-width:1.5;"/>
    </g>
    <g id="line2d_48">
     <g>
      <use style="fill:#d62728;stroke:#d62728;stroke-linejoin:bevel;" x="53.142856" xlink:href="#m56e2444530" y="150.278022"/>
     </g>
    </g>
    <g id="text_15">
     <!-- N97 -->
     <g transform="translate(71.142856 153.778022)scale(0.1 -0.1)">
      <defs>
       <path d="M 35.203125 29.234375 
C 35.203125 7 26.09375 0.390625 18.59375 0.390625 
C 16.296875 0.390625 10.703125 0.671875 8.40625 4.390625 
C 11 4 12.90625 5.390625 12.90625 7.890625 
C 12.90625 10.59375 10.703125 11.5 9.296875 11.5 
C 8.40625 11.5 5.703125 11.09375 5.703125 7.6875 
C 5.703125 1.0625 11.59375 -2 18.796875 -2 
C 30.296875 -2 42 10.390625 42 32.65625 
C 42 60.265625 30.796875 66 23.203125 66 
C 13.296875 66 3.796875 57.25 3.796875 43.75 
C 3.796875 31.25 11.90625 22 22.09375 22 
C 30.5 22 34.203125 29.84375 35.203125 33.15625 
z
M 22.296875 23.59375 
C 19.59375 23.59375 15.796875 24.09375 12.703125 30.140625 
C 10.59375 34.078125 10.59375 38.703125 10.59375 43.640625 
C 10.59375 49.59375 10.59375 53.71875 13.40625 58.15625 
C 14.796875 60.265625 17.40625 63.6875 23.203125 63.6875 
C 35 63.6875 35 45.453125 35 41.421875 
C 35 34.265625 31.796875 23.59375 22.296875 23.59375 
z
" id="CMR17-57"/>
       <path d="M 45.09375 61.796875 
L 45.09375 64 
L 21.59375 64 
C 9.90625 64 9.703125 65.09375 9.296875 67 
L 7.5 67 
L 4.59375 48.5 
L 6.40625 48.5 
C 6.703125 50.40625 7.40625 55.5 8.59375 57.390625 
C 9.203125 58.1875 16.59375 58.1875 18.296875 58.1875 
L 40.296875 58.1875 
L 29.203125 41.71875 
C 21.796875 30.640625 16.703125 15.671875 16.703125 2.59375 
C 16.703125 1.390625 16.703125 -2 20.296875 -2 
C 23.90625 -2 23.90625 1.390625 23.90625 2.6875 
L 23.90625 7.28125 
C 23.90625 23.65625 26.703125 34.4375 31.296875 41.3125 
z
" id="CMR17-55"/>
      </defs>
      <use transform="scale(0.996264)" xlink:href="#CMR17-78"/>
      <use transform="translate(69.07243 0)scale(0.996264)" xlink:href="#CMR17-57"/>
      <use transform="translate(114.762907 0)scale(0.996264)" xlink:href="#CMR17-55"/>
     </g>
    </g>
    <g id="line2d_49"/>
    <g id="line2d_50">
     <g>
      <use style="fill:#2ca02c;stroke:#2ca02c;" x="53.142856" xlink:href="#mf6c0bd10ec" y="161.956147"/>
     </g>
    </g>
    <g id="text_16">
     <!-- F03 -->
     <g transform="translate(71.142856 165.456147)scale(0.1 -0.1)">
      <defs>
       <path d="M 54.40625 67.796875 
L 5.09375 67.796875 
L 5.09375 65.1875 
C 12 65.1875 13.09375 65.1875 13.09375 60.671875 
L 13.09375 7.03125 
C 13.09375 2.59375 12 2.59375 5.09375 2.59375 
L 5.09375 0 
C 8 0.1875 13.59375 0.1875 16.703125 0.1875 
C 20.796875 0.1875 25.59375 0.1875 29.703125 0 
L 29.703125 2.59375 
L 27.5 2.59375 
C 19.90625 2.59375 19.703125 3.578125 19.703125 7.125 
L 19.703125 32.390625 
L 28.703125 32.390625 
C 38 32.390625 38.90625 29.140625 38.90625 20.84375 
L 40.703125 20.84375 
L 40.703125 46.734375 
L 38.90625 46.734375 
C 38.90625 38.296875 38 35 28.703125 35 
L 19.703125 35 
L 19.703125 61.28125 
C 19.703125 64.6875 19.90625 65.1875 23.90625 65.1875 
L 36.796875 65.1875 
C 51.90625 65.1875 53.59375 58.96875 55 45.625 
L 56.796875 45.625 
z
" id="CMR17-70"/>
      </defs>
      <use transform="scale(0.996264)" xlink:href="#CMR17-70"/>
      <use transform="translate(59.983847 0)scale(0.996264)" xlink:href="#CMR17-48"/>
      <use transform="translate(105.674324 0)scale(0.996264)" xlink:href="#CMR17-51"/>
     </g>
    </g>
    <g id="line2d_51">
     <path d="M 137.956583 126.921772 
L 157.956583 126.921772 
" style="fill:none;stroke:#9467bd;stroke-dasharray:1.5,2.475;stroke-dashoffset:0;stroke-width:1.5;"/>
    </g>
    <g id="line2d_52">
     <g>
      <use style="fill:#9467bd;stroke:#9467bd;" x="147.956583" xlink:href="#m25d30ff866" y="126.921772"/>
     </g>
    </g>
    <g id="text_17">
     <!-- F93 -->
     <g transform="translate(165.956583 130.421772)scale(0.1 -0.1)">
      <use transform="scale(0.996264)" xlink:href="#CMR17-70"/>
      <use transform="translate(59.983847 0)scale(0.996264)" xlink:href="#CMR17-57"/>
      <use transform="translate(105.674324 0)scale(0.996264)" xlink:href="#CMR17-51"/>
     </g>
    </g>
    <g id="line2d_53"/>
    <g id="line2d_54">
     <g>
      <use style="fill:#8c564b;stroke:#8c564b;stroke-linejoin:miter;" x="147.956583" xlink:href="#m184cf2ebe4" y="138.599897"/>
     </g>
    </g>
    <g id="text_18">
     <!-- S13-CS -->
     <g transform="translate(165.956583 142.099897)scale(0.1 -0.1)">
      <defs>
       <path d="M 25.5 19.59375 
L 25.5 24 
L 0.40625 24 
L 0.40625 19.59375 
z
" id="CMR17-45"/>
       <path d="M 62.09375 67.984375 
C 62.09375 69.796875 62 69.890625 61.40625 69.890625 
C 61 69.890625 60.90625 69.796875 60.203125 68.59375 
L 55.796875 60.140625 
C 50.90625 66.390625 44.90625 70 37.203125 70 
C 20.09375 70 4.59375 54.796875 4.59375 34.046875 
C 4.59375 13.078125 20.09375 -2 37.296875 -2 
C 52.59375 -2 62.09375 11.578125 62.09375 23.15625 
C 62.09375 24.171875 62.09375 24.578125 61.203125 24.578125 
C 60.40625 24.578125 60.40625 24.265625 60.296875 23.359375 
C 59.5 9.25 49.5 0.59375 38.703125 0.59375 
C 28.5 0.59375 12.203125 7.84375 12.203125 34.046875 
C 12.203125 60.34375 28.796875 67.390625 38.5 67.390625 
C 49.796875 67.390625 58 57.515625 59.90625 43.515625 
C 60.09375 42.296875 60.09375 42.109375 61 42.109375 
C 62.09375 42.109375 62.09375 42.296875 62.09375 44.125 
z
" id="CMR17-67"/>
      </defs>
      <use transform="scale(0.996264)" xlink:href="#CMR17-83"/>
      <use transform="translate(50.89537 0)scale(0.996264)" xlink:href="#CMR17-49"/>
      <use transform="translate(96.585847 0)scale(0.996264)" xlink:href="#CMR17-51"/>
      <use transform="translate(142.276324 0)scale(0.996264)" xlink:href="#CMR17-45"/>
      <use transform="translate(172.35229 0)scale(0.996264)" xlink:href="#CMR17-67"/>
      <use transform="translate(238.862171 0)scale(0.996264)" xlink:href="#CMR17-83"/>
     </g>
    </g>
    <g id="line2d_55"/>
    <g id="line2d_56">
     <g>
      <use style="fill:#e377c2;stroke:#e377c2;stroke-linejoin:miter;" x="147.956583" xlink:href="#m289f727c9c" y="150.278022"/>
     </g>
    </g>
    <g id="text_19">
     <!-- S13-HS -->
     <g transform="translate(165.956583 153.778022)scale(0.1 -0.1)">
      <defs>
       <path d="M 56.09375 60.90625 
C 56.09375 65.390625 57.203125 65.390625 64.09375 65.390625 
L 64.09375 68 
C 61.203125 67.796875 55.90625 67.796875 52.796875 67.796875 
C 49.703125 67.796875 44.40625 67.796875 41.5 68 
L 41.5 65.390625 
C 48.40625 65.390625 49.5 65.390625 49.5 60.90625 
L 49.5 36.59375 
L 19.703125 36.59375 
L 19.703125 60.90625 
C 19.703125 65.390625 20.796875 65.390625 27.703125 65.390625 
L 27.703125 68 
C 24.796875 67.796875 19.5 67.796875 16.40625 67.796875 
C 13.296875 67.796875 8 67.796875 5.09375 68 
L 5.09375 65.390625 
C 12 65.390625 13.09375 65.390625 13.09375 60.90625 
L 13.09375 7.0625 
C 13.09375 2.59375 12 2.59375 5.09375 2.59375 
L 5.09375 0 
C 8 0.1875 13.296875 0.1875 16.40625 0.1875 
C 19.5 0.1875 24.796875 0.1875 27.703125 0 
L 27.703125 2.59375 
C 20.796875 2.59375 19.703125 2.59375 19.703125 7.0625 
L 19.703125 34 
L 49.5 34 
L 49.5 7.0625 
C 49.5 2.59375 48.40625 2.59375 41.5 2.59375 
L 41.5 0 
C 44.40625 0.1875 49.703125 0.1875 52.796875 0.1875 
C 55.90625 0.1875 61.203125 0.1875 64.09375 0 
L 64.09375 2.59375 
C 57.203125 2.59375 56.09375 2.59375 56.09375 7.0625 
z
" id="CMR17-72"/>
      </defs>
      <use transform="scale(0.996264)" xlink:href="#CMR17-83"/>
      <use transform="translate(50.89537 0)scale(0.996264)" xlink:href="#CMR17-49"/>
      <use transform="translate(96.585847 0)scale(0.996264)" xlink:href="#CMR17-51"/>
      <use transform="translate(142.276324 0)scale(0.996264)" xlink:href="#CMR17-45"/>
      <use transform="translate(172.35229 0)scale(0.996264)" xlink:href="#CMR17-72"/>
      <use transform="translate(241.42472 0)scale(0.996264)" xlink:href="#CMR17-83"/>
     </g>
    </g>
   </g>
  </g>
 </g>
 <defs>
  <clipPath id="p0bab17cf3a">
   <rect height="163.08" width="167.4" x="36.381757" y="10.313325"/>
  </clipPath>
 </defs>
</svg>
