<?xml version="1.0" encoding="utf-8" standalone="no"?>
<!DOCTYPE svg PUBLIC "-//W3C//DTD SVG 1.1//EN"
  "http://www.w3.org/Graphics/SVG/1.1/DTD/svg11.dtd">
<!-- Created with matplotlib (https://matplotlib.org/) -->
<svg height="288pt" version="1.1" viewBox="0 0 432 288" width="432pt" xmlns="http://www.w3.org/2000/svg" xmlns:xlink="http://www.w3.org/1999/xlink">
 <metadata>
  <rdf:RDF xmlns:cc="http://creativecommons.org/ns#" xmlns:dc="http://purl.org/dc/elements/1.1/" xmlns:rdf="http://www.w3.org/1999/02/22-rdf-syntax-ns#">
   <cc:Work>
    <dc:type rdf:resource="http://purl.org/dc/dcmitype/StillImage"/>
    <dc:date>2022-06-16T19:45:14.845614</dc:date>
    <dc:format>image/svg+xml</dc:format>
    <dc:creator>
     <cc:Agent>
      <dc:title>Matplotlib v3.3.4, https://matplotlib.org/</dc:title>
     </cc:Agent>
    </dc:creator>
   </cc:Work>
  </rdf:RDF>
 </metadata>
 <defs>
  <style type="text/css">*{stroke-linecap:butt;stroke-linejoin:round;}</style>
 </defs>
 <g id="figure_1">
  <g id="patch_1">
   <path d="M 0 288 
L 432 288 
L 432 0 
L 0 0 
z
" style="fill:none;"/>
  </g>
  <g id="patch_2">
   <path d="M 112.68 252 
L 330.12 252 
L 330.12 34.56 
L 112.68 34.56 
z
" style="fill:#ffffff;"/>
  </g>
  <g id="pane3d_1">
   <g id="patch_3">
    <path d="M 129.09822 198.386264 
L 200.904009 138.197228 
L 199.90584 51.393878 
L 124.663773 106.302111 
" style="fill:#f2f2f2;opacity:0.5;stroke:#f2f2f2;stroke-linejoin:miter;"/>
   </g>
  </g>
  <g id="pane3d_2">
   <g id="patch_4">
    <path d="M 200.904009 138.197228 
L 316.12668 171.68791 
L 320.238571 81.894718 
L 199.90584 51.393878 
" style="fill:#e6e6e6;opacity:0.5;stroke:#e6e6e6;stroke-linejoin:miter;"/>
   </g>
  </g>
  <g id="pane3d_3">
   <g id="patch_5">
    <path d="M 129.09822 198.386264 
L 251.239879 238.27773 
L 316.12668 171.68791 
L 200.904009 138.197228 
" style="fill:#ececec;opacity:0.5;stroke:#ececec;stroke-linejoin:miter;"/>
   </g>
  </g>
  <g id="axis3d_1">
   <g id="line2d_1">
    <path d="M 129.09822 198.386264 
L 251.239879 238.27773 
" style="fill:none;stroke:#000000;stroke-linecap:square;stroke-width:0.8;"/>
   </g>
   <g id="Line3DCollection_1">
    <path d="M 158.519047 207.995106 
L 228.751354 146.291352 
L 228.941667 58.753614 
" style="fill:none;stroke:#b0b0b0;stroke-width:0.8;"/>
    <path d="M 188.559037 217.806167 
L 257.123632 154.538053 
L 258.555303 66.259807 
" style="fill:none;stroke:#b0b0b0;stroke-width:0.8;"/>
    <path d="M 219.399439 227.878643 
L 286.187853 162.985875 
L 288.923094 73.957157 
" style="fill:none;stroke:#b0b0b0;stroke-width:0.8;"/>
   </g>
   <g id="xtick_1">
    <g id="line2d_2">
     <path d="M 159.131109 207.457369 
L 157.292269 209.072912 
" style="fill:none;stroke:#000000;stroke-linecap:square;stroke-width:0.8;"/>
    </g>
    <g id="text_1">
     <!-- −2 -->
     <g transform="translate(143.640214 231.504144)scale(0.1 -0.1)">
      <defs>
       <path d="M 10.59375 35.5 
L 73.1875 35.5 
L 73.1875 27.203125 
L 10.59375 27.203125 
z
" id="DejaVuSans-8722"/>
       <path d="M 19.1875 8.296875 
L 53.609375 8.296875 
L 53.609375 0 
L 7.328125 0 
L 7.328125 8.296875 
Q 12.9375 14.109375 22.625 23.890625 
Q 32.328125 33.6875 34.8125 36.53125 
Q 39.546875 41.84375 41.421875 45.53125 
Q 43.3125 49.21875 43.3125 52.78125 
Q 43.3125 58.59375 39.234375 62.25 
Q 35.15625 65.921875 28.609375 65.921875 
Q 23.96875 65.921875 18.8125 64.3125 
Q 13.671875 62.703125 7.8125 59.421875 
L 7.8125 69.390625 
Q 13.765625 71.78125 18.9375 73 
Q 24.125 74.21875 28.421875 74.21875 
Q 39.75 74.21875 46.484375 68.546875 
Q 53.21875 62.890625 53.21875 53.421875 
Q 53.21875 48.921875 51.53125 44.890625 
Q 49.859375 40.875 45.40625 35.40625 
Q 44.1875 33.984375 37.640625 27.21875 
Q 31.109375 20.453125 19.1875 8.296875 
z
" id="DejaVuSans-50"/>
      </defs>
      <use xlink:href="#DejaVuSans-8722"/>
      <use x="83.789062" xlink:href="#DejaVuSans-50"/>
     </g>
    </g>
   </g>
   <g id="xtick_2">
    <g id="line2d_3">
     <path d="M 189.15721 217.254202 
L 187.360066 218.91252 
" style="fill:none;stroke:#000000;stroke-linecap:square;stroke-width:0.8;"/>
    </g>
    <g id="text_2">
     <!-- 0 -->
     <g transform="translate(177.91082 241.571064)scale(0.1 -0.1)">
      <defs>
       <path d="M 31.78125 66.40625 
Q 24.171875 66.40625 20.328125 58.90625 
Q 16.5 51.421875 16.5 36.375 
Q 16.5 21.390625 20.328125 13.890625 
Q 24.171875 6.390625 31.78125 6.390625 
Q 39.453125 6.390625 43.28125 13.890625 
Q 47.125 21.390625 47.125 36.375 
Q 47.125 51.421875 43.28125 58.90625 
Q 39.453125 66.40625 31.78125 66.40625 
z
M 31.78125 74.21875 
Q 44.046875 74.21875 50.515625 64.515625 
Q 56.984375 54.828125 56.984375 36.375 
Q 56.984375 17.96875 50.515625 8.265625 
Q 44.046875 -1.421875 31.78125 -1.421875 
Q 19.53125 -1.421875 13.0625 8.265625 
Q 6.59375 17.96875 6.59375 36.375 
Q 6.59375 54.828125 13.0625 64.515625 
Q 19.53125 74.21875 31.78125 74.21875 
z
" id="DejaVuSans-48"/>
      </defs>
      <use xlink:href="#DejaVuSans-48"/>
     </g>
    </g>
   </g>
   <g id="xtick_3">
    <g id="line2d_4">
     <path d="M 219.98276 227.311878 
L 218.230203 229.014693 
" style="fill:none;stroke:#000000;stroke-linecap:square;stroke-width:0.8;"/>
    </g>
    <g id="text_3">
     <!-- 2 -->
     <g transform="translate(208.796863 251.907482)scale(0.1 -0.1)">
      <use xlink:href="#DejaVuSans-50"/>
     </g>
    </g>
   </g>
  </g>
  <g id="axis3d_2">
   <g id="line2d_5">
    <path d="M 316.12668 171.68791 
L 251.239879 238.27773 
" style="fill:none;stroke:#000000;stroke-linecap:square;stroke-width:0.8;"/>
   </g>
   <g id="Line3DCollection_2">
    <path d="M 144.809149 91.600933 
L 148.270155 182.315968 
L 268.620589 220.440846 
" style="fill:none;stroke:#b0b0b0;stroke-width:0.8;"/>
    <path d="M 163.958537 77.626582 
L 166.530371 167.009893 
L 285.136664 203.491289 
" style="fill:none;stroke:#b0b0b0;stroke-width:0.8;"/>
    <path d="M 182.27664 64.258865 
L 184.030963 152.34055 
L 300.930908 187.28251 
" style="fill:none;stroke:#b0b0b0;stroke-width:0.8;"/>
   </g>
   <g id="xtick_4">
    <g id="line2d_6">
     <path d="M 267.607273 220.119845 
L 270.649797 221.083663 
" style="fill:none;stroke:#000000;stroke-linecap:square;stroke-width:0.8;"/>
    </g>
    <g id="text_4">
     <!-- −2 -->
     <g transform="translate(273.9202 241.224596)scale(0.1 -0.1)">
      <use xlink:href="#DejaVuSans-8722"/>
      <use x="83.789062" xlink:href="#DejaVuSans-50"/>
     </g>
    </g>
   </g>
   <g id="xtick_5">
    <g id="line2d_7">
     <path d="M 284.139145 203.184468 
L 287.134182 204.105694 
" style="fill:none;stroke:#000000;stroke-linecap:square;stroke-width:0.8;"/>
    </g>
    <g id="text_5">
     <!-- 0 -->
     <g transform="translate(294.35448 223.968328)scale(0.1 -0.1)">
      <use xlink:href="#DejaVuSans-48"/>
     </g>
    </g>
   </g>
   <g id="xtick_6">
    <g id="line2d_8">
     <path d="M 299.948787 186.988949 
L 302.897537 187.870345 
" style="fill:none;stroke:#000000;stroke-linecap:square;stroke-width:0.8;"/>
    </g>
    <g id="text_6">
     <!-- 2 -->
     <g transform="translate(309.888467 207.466762)scale(0.1 -0.1)">
      <use xlink:href="#DejaVuSans-50"/>
     </g>
    </g>
   </g>
  </g>
  <g id="axis3d_3">
   <g id="line2d_9">
    <path d="M 316.12668 171.68791 
L 320.238571 81.894718 
" style="fill:none;stroke:#000000;stroke-linecap:square;stroke-width:0.8;"/>
   </g>
   <g id="Line3DCollection_3">
    <path d="M 316.476589 164.046784 
L 200.818903 130.796249 
L 128.721443 190.562264 
" style="fill:none;stroke:#b0b0b0;stroke-width:0.8;"/>
    <path d="M 317.023679 152.099741 
L 200.685901 119.230013 
L 128.13213 178.324797 
" style="fill:none;stroke:#b0b0b0;stroke-width:0.8;"/>
    <path d="M 317.577305 140.009974 
L 200.551386 107.532218 
L 127.535508 165.935548 
" style="fill:none;stroke:#b0b0b0;stroke-width:0.8;"/>
    <path d="M 318.137584 127.774911 
L 200.415332 95.700609 
L 126.93144 153.391677 
" style="fill:none;stroke:#b0b0b0;stroke-width:0.8;"/>
    <path d="M 318.704637 115.391916 
L 200.277712 83.732874 
L 126.319785 140.69027 
" style="fill:none;stroke:#b0b0b0;stroke-width:0.8;"/>
    <path d="M 319.278588 102.858291 
L 200.1385 71.626652 
L 125.7004 127.828342 
" style="fill:none;stroke:#b0b0b0;stroke-width:0.8;"/>
    <path d="M 319.859564 90.171269 
L 199.997668 59.379525 
L 125.073138 114.802829 
" style="fill:none;stroke:#b0b0b0;stroke-width:0.8;"/>
   </g>
   <g id="xtick_7">
    <g id="line2d_10">
     <path d="M 315.50573 163.76767 
L 318.420627 164.605677 
" style="fill:none;stroke:#000000;stroke-linecap:square;stroke-width:0.8;"/>
    </g>
    <g id="text_7">
     <!-- −3 -->
     <g transform="translate(327.409872 169.060209)scale(0.1 -0.1)">
      <defs>
       <path d="M 40.578125 39.3125 
Q 47.65625 37.796875 51.625 33 
Q 55.609375 28.21875 55.609375 21.1875 
Q 55.609375 10.40625 48.1875 4.484375 
Q 40.765625 -1.421875 27.09375 -1.421875 
Q 22.515625 -1.421875 17.65625 -0.515625 
Q 12.796875 0.390625 7.625 2.203125 
L 7.625 11.71875 
Q 11.71875 9.328125 16.59375 8.109375 
Q 21.484375 6.890625 26.8125 6.890625 
Q 36.078125 6.890625 40.9375 10.546875 
Q 45.796875 14.203125 45.796875 21.1875 
Q 45.796875 27.640625 41.28125 31.265625 
Q 36.765625 34.90625 28.71875 34.90625 
L 20.21875 34.90625 
L 20.21875 43.015625 
L 29.109375 43.015625 
Q 36.375 43.015625 40.234375 45.921875 
Q 44.09375 48.828125 44.09375 54.296875 
Q 44.09375 59.90625 40.109375 62.90625 
Q 36.140625 65.921875 28.71875 65.921875 
Q 24.65625 65.921875 20.015625 65.03125 
Q 15.375 64.15625 9.8125 62.3125 
L 9.8125 71.09375 
Q 15.4375 72.65625 20.34375 73.4375 
Q 25.25 74.21875 29.59375 74.21875 
Q 40.828125 74.21875 47.359375 69.109375 
Q 53.90625 64.015625 53.90625 55.328125 
Q 53.90625 49.265625 50.4375 45.09375 
Q 46.96875 40.921875 40.578125 39.3125 
z
" id="DejaVuSans-51"/>
      </defs>
      <use xlink:href="#DejaVuSans-8722"/>
      <use x="83.789062" xlink:href="#DejaVuSans-51"/>
     </g>
    </g>
   </g>
   <g id="xtick_8">
    <g id="line2d_11">
     <path d="M 316.046838 151.823747 
L 318.979707 152.652391 
" style="fill:none;stroke:#000000;stroke-linecap:square;stroke-width:0.8;"/>
    </g>
    <g id="text_8">
     <!-- −2 -->
     <g transform="translate(328.06322 157.142109)scale(0.1 -0.1)">
      <use xlink:href="#DejaVuSans-8722"/>
      <use x="83.789062" xlink:href="#DejaVuSans-50"/>
     </g>
    </g>
   </g>
   <g id="xtick_9">
    <g id="line2d_12">
     <path d="M 316.594409 139.737195 
L 319.545471 140.556192 
" style="fill:none;stroke:#000000;stroke-linecap:square;stroke-width:0.8;"/>
    </g>
    <g id="text_9">
     <!-- −1 -->
     <g transform="translate(328.724343 145.082161)scale(0.1 -0.1)">
      <defs>
       <path d="M 12.40625 8.296875 
L 28.515625 8.296875 
L 28.515625 63.921875 
L 10.984375 60.40625 
L 10.984375 69.390625 
L 28.421875 72.90625 
L 38.28125 72.90625 
L 38.28125 8.296875 
L 54.390625 8.296875 
L 54.390625 0 
L 12.40625 0 
z
" id="DejaVuSans-49"/>
      </defs>
      <use xlink:href="#DejaVuSans-8722"/>
      <use x="83.789062" xlink:href="#DejaVuSans-49"/>
     </g>
    </g>
   </g>
   <g id="xtick_10">
    <g id="line2d_13">
     <path d="M 317.148557 127.505443 
L 320.118041 128.314501 
" style="fill:none;stroke:#000000;stroke-linecap:square;stroke-width:0.8;"/>
    </g>
    <g id="text_10">
     <!-- 0 -->
     <g transform="translate(333.583227 132.877818)scale(0.1 -0.1)">
      <use xlink:href="#DejaVuSans-48"/>
     </g>
    </g>
   </g>
   <g id="xtick_11">
    <g id="line2d_14">
     <path d="M 317.709403 115.125861 
L 320.697538 115.924678 
" style="fill:none;stroke:#000000;stroke-linecap:square;stroke-width:0.8;"/>
    </g>
    <g id="text_11">
     <!-- 1 -->
     <g transform="translate(334.260325 120.526471)scale(0.1 -0.1)">
      <use xlink:href="#DejaVuSans-49"/>
     </g>
    </g>
   </g>
   <g id="xtick_12">
    <g id="line2d_15">
     <path d="M 318.277069 102.59575 
L 321.284091 103.384018 
" style="fill:none;stroke:#000000;stroke-linecap:square;stroke-width:0.8;"/>
    </g>
    <g id="text_12">
     <!-- 2 -->
     <g transform="translate(334.945628 108.025448)scale(0.1 -0.1)">
      <use xlink:href="#DejaVuSans-50"/>
     </g>
    </g>
   </g>
   <g id="xtick_13">
    <g id="line2d_16">
     <path d="M 318.851679 89.91235 
L 321.877829 90.689748 
" style="fill:none;stroke:#000000;stroke-linecap:square;stroke-width:0.8;"/>
    </g>
    <g id="text_13">
     <!-- 3 -->
     <g transform="translate(335.639287 95.372012)scale(0.1 -0.1)">
      <use xlink:href="#DejaVuSans-51"/>
     </g>
    </g>
   </g>
  </g>
  <g id="axes_1">
   <g id="line2d_17">
    <path clip-path="url(#p6952c848a1)" d="M 141.344465 194.868925 
L 155.940199 199.58751 
L 155.518233 187.393831 
L 140.835748 182.724782 
L 150.392446 174.778347 
L 164.973269 179.344714 
L 165.33325 191.452764 
L 150.838006 186.837327 
L 160.125789 178.9798 
L 159.740776 167.00517 
L 168.887479 159.399648 
L 169.214433 171.290748 
L 183.511398 175.709785 
L 183.267725 163.770559 
L 174.220849 171.472207 
L 174.521439 183.495436 
L 189.099506 188.068293 
L 188.885523 175.996192 
L 197.829298 168.196585 
L 197.987562 180.18421 
L 212.646317 184.715073 
L 212.575649 172.678775 
L 203.738352 180.578221 
L 203.86348 192.699466 
L 185.702675 209.209278 
L 170.725036 204.367229 
L 180.014211 196.127336 
L 179.742054 183.969947 
L 170.392125 192.123748 
L 185.461194 196.915732 
L 194.702457 188.65519 
L 194.518169 176.296376 
L 185.216675 184.467544 
L 170.055055 179.727266 
L 179.466534 171.662338 
L 179.187588 159.201709 
L 169.713745 167.174897 
L 184.969061 171.861779 
L 203.48345 155.885772 
L 203.611684 168.307912 
L 212.504121 160.496093 
L 212.431717 148.164341 
L 197.506997 143.784092 
L 197.669121 156.064093 
L 188.668926 163.776582 
L 188.449665 151.406744 
L 173.608653 146.985148 
L 173.916609 159.303002 
L 183.021126 151.687961 
L 182.771549 139.459392 
L 168.221795 135.189192 
L 168.556623 147.366648 
L 159.351118 154.886076 
L 158.95673 142.619888 
L 149.484922 150.216394 
L 164.239969 154.679924 
L 164.60887 167.088019 
L 149.941452 162.572272 
L 140.320757 170.430844 
L 155.091028 175.048766 
L 154.658486 162.549479 
L 139.799374 157.984323 
L 138.736951 132.622024 
L 148.554846 125.044063 
L 149.022755 137.707939 
L 163.866484 142.117608 
L 163.488327 129.398176 
L 153.776987 137.07653 
L 154.220507 149.893061 
L 169.368117 154.463682 
L 178.905153 146.585188 
L 194.142629 151.111829 
L 184.718292 159.095425 
L 184.464308 146.165394 
L 193.95129 138.280178 
L 178.619162 133.809832 
L 169.018086 141.590586 
L 168.66357 128.552497 
L 178.329548 120.872621 
L 193.757511 125.284871 
L 184.207047 133.068519 
L 183.946445 119.801548 
L 193.561244 112.122757 
L 178.036241 107.770461 
L 168.30448 115.346223 
L 137.647484 106.614144 
L 138.195662 119.700313 
L 153.32782 124.096829 
L 163.105411 116.518663 
L 148.081086 112.22185 
L 147.601365 99.238313 
L 162.717645 103.476028 
L 172.338269 96.171403 
L 157.330119 92.029301 
L 157.744313 104.911482 
L 172.661793 109.111946 
L 182.00439 101.870924 
L 167.192752 97.763605 
L 166.841299 84.981513 
L 196.838297 93.13386 
L 187.544987 100.368306 
L 202.954241 104.621108 
L 212.133022 97.29054 
L 212.209092 110.246794 
L 203.089045 117.679651 
L 187.775406 113.367637 
L 197.008577 106.031638 
L 197.176762 118.770672 
L 188.002956 126.205164 
L 203.22216 130.574585 
L 212.28422 123.042548 
L 212.358423 135.680767 
L 203.353618 143.308966 
L 188.227692 138.88389 
L 197.342889 131.353876 
L 182.518937 127.082192 
L 182.263237 114.553634 
L 172.981316 121.892463 
L 173.296912 134.515905 
L 158.557526 130.203912 
L 158.153417 117.635386 
L 167.539934 110.390384 
L 167.882923 122.864665 
L 177.005769 115.684829 
L 176.721346 103.303693 
L 185.704304 96.370179 
L 185.932591 108.659268 
L 200.364813 112.696945 
L 200.221418 100.354845 
L 191.341051 107.376183 
L 191.539392 119.810962 
L 206.257586 123.989495 
L 214.978325 116.78534 
L 229.776563 120.925416 
L 221.163889 128.221432 
L 221.144445 115.678267 
L 229.809505 108.476201 
L 214.921985 104.389866 
L 206.14755 111.500707 
L 206.036166 98.858979 
L 214.864963 91.844267 
L 229.842848 95.875246 
L 221.124762 102.980504 
L 221.104835 90.125266 
L 229.8766 83.119759 
L 214.807246 79.145798 
L 205.92341 86.061486 
L 176.142122 78.089599 
L 176.433485 90.77286 
L 191.140297 94.790099 
L 200.076296 87.864212 
L 185.473286 83.934122 
L 185.23949 71.348444 
L 199.929418 75.222346 
L 208.725951 68.543427 
L 194.140007 64.753157 
L 194.31864 77.242487 
L 208.81888 81.088233 
L 217.374259 74.457348 
L 202.975753 70.693259 
L 202.849995 58.299052 
L 231.997258 65.764105 
L 223.496419 72.381647 
L 238.454936 76.268733 
L 246.846169 69.567134 
L 246.711972 82.126875 
L 238.369847 88.925724 
L 223.501462 84.982339 
L 231.951878 78.26826 
L 231.907033 90.625109 
L 223.506445 97.432982 
L 238.285777 101.431048 
L 246.579366 94.537735 
L 246.448322 106.802345 
L 238.202709 113.787413 
L 223.511369 109.73624 
L 231.862712 102.837241 
L 217.455322 98.920585 
L 217.415028 86.760571 
L 208.91071 93.484583 
L 209.001459 105.735096 
L 194.66964 101.783061 
L 194.495172 89.58493 
L 203.100047 82.94324 
L 203.344347 107.020475 
L 194.842079 113.839398 
L 209.091147 117.842331 
L 217.495149 110.939876 
L 217.534519 122.820872 
L 209.179792 129.808787 
L 195.012526 125.756397 
L 203.464402 118.852563 
L 203.583091 130.550098 
L 217.573438 134.565946 
L 217.611914 146.177418 
L 203.700438 142.115361 
L 195.347578 149.181936 
L 209.354025 153.329069 
L 209.267412 141.636904 
L 195.181014 137.53646 
L 186.601546 144.670325 
L 200.784948 148.858066 
L 200.921739 160.631755 
L 186.819383 156.396844 
L 178.110274 163.764808 
L 192.309471 168.090312 
L 192.120362 156.234268 
L 177.839009 151.956412 
L 177.286814 127.918936 
L 186.158196 120.803979 
L 186.381166 132.806841 
L 200.646549 136.946013 
L 200.506514 124.893143 
L 191.735363 132.097148 
L 191.929005 144.237388 
L 206.473712 148.519222 
L 206.366299 136.328102 
L 215.033995 129.033368 
L 215.089006 141.136564 
L 229.711856 145.379457 
L 229.744016 133.225615 
L 221.183097 140.612804 
L 221.220824 164.951061 
L 206.579849 160.565483 
L 206.684732 172.469451 
L 221.239352 176.903228 
L 229.64867 169.258398 
L 215.197101 164.918619 
L 215.143371 153.097483 
L 229.680076 157.389539 
L 237.959338 149.988906 
L 223.525797 145.787412 
L 223.530496 157.526544 
L 237.880102 161.775282 
L 245.939233 154.448804 
L 231.690503 150.288271 
L 231.732812 138.630312 
L 246.064295 142.744081 
L 246.190813 130.903037 
L 238.039507 138.063789 
L 223.521044 133.910943 
L 231.775611 126.837402 
L 231.818908 114.907182 
L 223.516235 121.894713 
L 238.120625 125.997466 
L 246.318813 118.923276 
L 260.998135 122.989063 
L 252.907682 130.151534 
L 267.880854 134.357887 
L 275.860223 127.105472 
L 275.556478 139.185272 
L 267.62137 146.525354 
L 252.738487 142.26827 
L 260.783338 135.018685 
L 260.571044 146.90816 
L 275.256294 151.123476 
L 274.959609 162.922557 
L 260.361209 158.659923 
L 252.406038 166.076229 
L 267.111571 170.430353 
L 267.36496 158.54866 
L 252.571283 154.242333 
L 244.398405 161.735221 
L 259.301781 166.135539 
L 259.093648 178.100668 
L 244.279731 173.652077 
L 235.976708 181.392672 
L 250.900264 185.938838 
L 251.061082 173.889452 
L 236.046727 169.392032 
L 236.189322 144.952284 
L 244.64004 137.470871 
L 244.518499 149.675678 
L 259.512422 154.02624 
L 259.725616 141.770148 
L 251.38863 149.347599 
L 251.223858 161.693272 
L 266.524553 166.197662 
L 266.784772 153.799835 
L 275.004386 146.124485 
L 274.697201 158.432179 
L 290.076503 162.89456 
L 290.480086 150.534944 
L 282.381595 158.310103 
L 281.669707 183.058001 
L 266.267506 178.444405 
L 266.013571 190.542808 
L 281.320272 195.205692 
L 289.283936 187.166754 
L 274.093871 182.605206 
L 274.393718 170.591531 
L 289.677816 175.10426 
L 297.511243 167.324015 
L 282.343781 162.908881 
L 282.000054 174.838646 
L 297.074923 179.302125 
L 304.698789 171.606197 
L 289.737689 167.237657 
L 290.123361 155.390981 
L 305.175641 159.711651 
L 305.658185 147.675099 
L 297.952829 155.201333 
L 282.69163 150.836036 
L 290.513608 143.403752 
L 290.908513 131.273455 
L 283.043677 138.617518 
L 298.399777 142.931446 
L 306.146525 135.493985 
L 307.141015 110.687522 
L 299.310155 117.9392 
L 298.852185 130.511656 
L 283.399997 126.250677 
L 283.760668 113.732794 
L 291.712632 106.573283 
L 291.308159 118.997511 
L 276.167591 114.881541 
L 268.143468 122.043651 
L 253.078905 117.889561 
L 261.215478 110.816803 
L 261.435414 98.499351 
L 253.252194 105.479723 
L 268.409268 109.579974 
L 276.478649 102.510884 
L 276.793463 89.990843 
L 268.678315 96.96412 
L 253.427584 92.919329 
L 261.657989 86.034095 
L 261.88325 73.418357 
L 253.605115 80.205624 
L 268.950666 84.193284 
L 277.112102 77.318695 
L 308.15998 85.270524 
L 307.647382 98.05674 
L 292.122022 93.998067 
L 284.125772 101.061086 
L 299.773788 105.211245 
L 300.243192 92.324888 
L 284.49539 88.2327 
L 276.271541 95.354633 
L 292.145216 99.540701 
L 291.721123 112.528467 
L 275.948847 108.283695 
L 267.585053 115.671363 
L 283.483205 120.014023 
L 283.85976 106.923572 
L 252.068422 98.413632 
L 260.604878 91.223155 
L 245.141205 87.145209 
L 236.485194 94.242297 
L 236.409849 107.155702 
L 245.013608 99.958133 
L 260.380992 104.093938 
L 251.895291 111.385627 
L 251.724308 124.196647 
L 260.159853 116.806783 
L 244.887567 112.614837 
L 236.335434 119.909895 
L 236.261931 132.507804 
L 244.763053 125.118159 
L 259.94141 129.36458 
L 251.555434 136.849669 
L 267.048221 141.248111 
L 267.314961 128.539605 
L 275.630139 121.053076 
L 275.315342 133.665717 
L 290.888654 138.022633 
L 291.302301 125.354781 
L 283.111385 132.939884 
L 282.744211 145.704242 
L 274.41262 153.562363 
L 274.731056 140.700391 
L 266.154668 148.642457 
L 265.887356 161.603151 
L 249.941297 156.938147 
L 250.104913 144.034585 
L 258.808772 136.19811 
L 258.592385 149.003589 
L 242.979284 144.504503 
L 234.206415 152.334922 
L 218.678542 147.792257 
L 227.569276 140.06394 
L 227.589418 127.370338 
L 218.642851 135.001853 
L 234.269057 139.488124 
L 243.096265 131.755147 
L 243.214724 118.844764 
L 234.332499 126.477183 
L 218.606708 122.049115 
L 227.609814 114.517468 
L 227.630467 101.502313 
L 218.570103 108.930932 
L 234.396757 113.298932 
L 243.334688 105.770282 
L 275.380237 114.479368 
L 275.053569 127.673787 
L 259.02791 123.229815 
L 250.270634 130.965042 
L 266.425443 135.513913 
L 266.699748 122.214238 
L 250.4385 117.726294 
L 241.417267 125.538769 
L 257.811062 130.134624 
L 257.591733 143.540848 
L 241.306123 138.883319 
L 232.126931 146.991222 
L 248.545002 151.761349 
L 248.7066 138.247281 
L 215.878973 128.896938 
L 225.247383 121.005685 
L 209.296853 116.534096 
L 199.803126 124.31803 
L 199.962503 137.646128 
L 209.39342 129.756591 
L 225.241507 134.288993 
L 215.934301 142.286595 
L 215.988911 155.502241 
L 225.235708 147.401688 
L 209.488754 142.810393 
L 200.119822 150.80219 
L 200.275124 163.789524 
L 209.582881 155.698708 
L 225.229982 160.347037 
L 216.042815 168.547248 
L 232.025679 173.369897 
L 232.075974 160.266852 
L 241.196415 152.055308 
L 241.088117 165.058059 
L 257.161586 169.83305 
L 257.375259 156.772528 
L 248.385534 165.09736 
L 248.072818 191.249108 
L 231.976034 186.303703 
L 231.927026 199.071526 
L 247.91949 204.071567 
L 256.742425 195.453735 
L 240.875643 190.568733 
L 240.981202 177.894815 
L 256.950658 182.725714 
L 265.623439 174.399193 
L 265.362853 187.033702 
L 273.787669 178.804735 
L 274.098182 166.262803 
L 258.378698 161.649299 
L 258.16766 174.138211 
L 249.620221 182.259813 
L 249.779746 169.678868 
L 234.144559 165.020663 
L 234.083473 177.548358 
L 242.749645 169.532033 
L 242.863753 157.095825 
L 227.549381 152.601217 
L 227.52973 164.985038 
L 218.748597 172.89812 
L 218.713788 160.42336 
L 200.428447 176.611357 
L 216.096027 181.424898 
L 225.224328 173.128223 
L 225.218746 185.748349 
L 216.148561 194.138392 
L 200.579829 189.270831 
L 209.767598 180.99131 
L 209.858233 193.401619 
L 200.729306 201.771011 
L 216.20043 206.690849 
L 225.213234 198.21044 
L 225.20779 210.517447 
L 216.251646 219.085309 
L 200.876913 214.114885 
L 218.81694 197.390076 
L 218.782979 185.21942 
L 227.510317 177.218204 
L 227.49114 189.303447 
L 242.525595 193.950434 
L 242.636934 181.815976 
L 234.023144 189.920941 
L 233.963557 202.141276 
L 249.307098 206.954247 
L 249.462684 194.683969 
L 257.959224 186.473224 
L 257.75334 198.657165 
L 273.178125 203.4248 
L 273.481007 191.191108 
L 265.105537 199.509717 
L 264.851428 211.830202 
L 256.333834 220.428306 
L 240.668491 215.440296 
L 240.771414 203.082893 
L 256.536833 208.020248 
L 247.768131 216.729419 
L 231.878643 211.676541 
L 231.830873 224.121843 
L 247.618703 229.225814 
L 247.618703 229.225814 
" style="fill:none;stroke:#1f77b4;stroke-linecap:square;stroke-width:1.5;"/>
   </g>
  </g>
 </g>
 <defs>
  <clipPath id="p6952c848a1">
   <rect height="217.44" width="217.44" x="112.68" y="34.56"/>
  </clipPath>
 </defs>
</svg>
