<?xml version="1.0" encoding="utf-8" standalone="no"?>
<!DOCTYPE svg PUBLIC "-//W3C//DTD SVG 1.1//EN"
  "http://www.w3.org/Graphics/SVG/1.1/DTD/svg11.dtd">
<!-- Created with matplotlib (https://matplotlib.org/) -->
<svg height="288pt" version="1.1" viewBox="0 0 432 288" width="432pt" xmlns="http://www.w3.org/2000/svg" xmlns:xlink="http://www.w3.org/1999/xlink">
 <metadata>
  <rdf:RDF xmlns:cc="http://creativecommons.org/ns#" xmlns:dc="http://purl.org/dc/elements/1.1/" xmlns:rdf="http://www.w3.org/1999/02/22-rdf-syntax-ns#">
   <cc:Work>
    <dc:type rdf:resource="http://purl.org/dc/dcmitype/StillImage"/>
    <dc:date>2022-06-18T14:54:55.538782</dc:date>
    <dc:format>image/svg+xml</dc:format>
    <dc:creator>
     <cc:Agent>
      <dc:title>Matplotlib v3.3.4, https://matplotlib.org/</dc:title>
     </cc:Agent>
    </dc:creator>
   </cc:Work>
  </rdf:RDF>
 </metadata>
 <defs>
  <style type="text/css">*{stroke-linecap:butt;stroke-linejoin:round;}</style>
 </defs>
 <g id="figure_1">
  <g id="patch_1">
   <path d="M 0 288 
L 432 288 
L 432 0 
L 0 0 
z
" style="fill:none;"/>
  </g>
  <g id="patch_2">
   <path d="M 112.68 252 
L 330.12 252 
L 330.12 34.56 
L 112.68 34.56 
z
" style="fill:#ffffff;"/>
  </g>
  <g id="pane3d_1">
   <g id="patch_3">
    <path d="M 129.09822 198.386264 
L 200.904009 138.197228 
L 199.90584 51.393878 
L 124.663773 106.302111 
" style="fill:#f2f2f2;opacity:0.5;stroke:#f2f2f2;stroke-linejoin:miter;"/>
   </g>
  </g>
  <g id="pane3d_2">
   <g id="patch_4">
    <path d="M 200.904009 138.197228 
L 316.12668 171.68791 
L 320.238571 81.894718 
L 199.90584 51.393878 
" style="fill:#e6e6e6;opacity:0.5;stroke:#e6e6e6;stroke-linejoin:miter;"/>
   </g>
  </g>
  <g id="pane3d_3">
   <g id="patch_5">
    <path d="M 129.09822 198.386264 
L 251.239879 238.27773 
L 316.12668 171.68791 
L 200.904009 138.197228 
" style="fill:#ececec;opacity:0.5;stroke:#ececec;stroke-linejoin:miter;"/>
   </g>
  </g>
  <g id="axis3d_1">
   <g id="line2d_1">
    <path d="M 129.09822 198.386264 
L 251.239879 238.27773 
" style="fill:none;stroke:#000000;stroke-linecap:square;stroke-width:0.8;"/>
   </g>
   <g id="Line3DCollection_1">
    <path d="M 131.878621 199.294344 
L 203.538249 138.962898 
L 202.651238 52.089756 
" style="fill:none;stroke:#b0b0b0;stroke-width:0.8;"/>
    <path d="M 150.461154 205.363399 
L 221.13031 144.076215 
L 220.992427 56.738713 
" style="fill:none;stroke:#b0b0b0;stroke-width:0.8;"/>
    <path d="M 169.352046 211.533164 
L 238.990053 149.267337 
L 239.624785 61.461473 
" style="fill:none;stroke:#b0b0b0;stroke-width:0.8;"/>
    <path d="M 188.559037 217.806167 
L 257.123632 154.538053 
L 258.555303 66.259807 
" style="fill:none;stroke:#b0b0b0;stroke-width:0.8;"/>
    <path d="M 208.090129 224.185022 
L 275.537396 159.890207 
L 277.791194 71.135545 
" style="fill:none;stroke:#b0b0b0;stroke-width:0.8;"/>
    <path d="M 227.953594 230.672429 
L 294.237887 165.325702 
L 297.339907 76.090574 
" style="fill:none;stroke:#b0b0b0;stroke-width:0.8;"/>
    <path d="M 248.157989 237.271185 
L 313.231857 170.846499 
L 317.209136 81.126844 
" style="fill:none;stroke:#b0b0b0;stroke-width:0.8;"/>
   </g>
   <g id="xtick_1">
    <g id="line2d_2">
     <path d="M 132.502526 198.769068 
L 130.62814 200.347144 
" style="fill:none;stroke:#000000;stroke-linecap:square;stroke-width:0.8;"/>
    </g>
    <g id="text_1">
     <!-- −6 -->
     <g transform="translate(116.966674 222.577496)scale(0.1 -0.1)">
      <defs>
       <path d="M 10.59375 35.5 
L 73.1875 35.5 
L 73.1875 27.203125 
L 10.59375 27.203125 
z
" id="DejaVuSans-8722"/>
       <path d="M 33.015625 40.375 
Q 26.375 40.375 22.484375 35.828125 
Q 18.609375 31.296875 18.609375 23.390625 
Q 18.609375 15.53125 22.484375 10.953125 
Q 26.375 6.390625 33.015625 6.390625 
Q 39.65625 6.390625 43.53125 10.953125 
Q 47.40625 15.53125 47.40625 23.390625 
Q 47.40625 31.296875 43.53125 35.828125 
Q 39.65625 40.375 33.015625 40.375 
z
M 52.59375 71.296875 
L 52.59375 62.3125 
Q 48.875 64.0625 45.09375 64.984375 
Q 41.3125 65.921875 37.59375 65.921875 
Q 27.828125 65.921875 22.671875 59.328125 
Q 17.53125 52.734375 16.796875 39.40625 
Q 19.671875 43.65625 24.015625 45.921875 
Q 28.375 48.1875 33.59375 48.1875 
Q 44.578125 48.1875 50.953125 41.515625 
Q 57.328125 34.859375 57.328125 23.390625 
Q 57.328125 12.15625 50.6875 5.359375 
Q 44.046875 -1.421875 33.015625 -1.421875 
Q 20.359375 -1.421875 13.671875 8.265625 
Q 6.984375 17.96875 6.984375 36.375 
Q 6.984375 53.65625 15.1875 63.9375 
Q 23.390625 74.21875 37.203125 74.21875 
Q 40.921875 74.21875 44.703125 73.484375 
Q 48.484375 72.75 52.59375 71.296875 
z
" id="DejaVuSans-54"/>
      </defs>
      <use xlink:href="#DejaVuSans-8722"/>
      <use x="83.789062" xlink:href="#DejaVuSans-54"/>
     </g>
    </g>
   </g>
   <g id="xtick_2">
    <g id="line2d_3">
     <path d="M 151.076845 204.829446 
L 149.227112 206.43361 
" style="fill:none;stroke:#000000;stroke-linecap:square;stroke-width:0.8;"/>
    </g>
    <g id="text_2">
     <!-- −4 -->
     <g transform="translate(135.572003 228.804012)scale(0.1 -0.1)">
      <defs>
       <path d="M 37.796875 64.3125 
L 12.890625 25.390625 
L 37.796875 25.390625 
z
M 35.203125 72.90625 
L 47.609375 72.90625 
L 47.609375 25.390625 
L 58.015625 25.390625 
L 58.015625 17.1875 
L 47.609375 17.1875 
L 47.609375 0 
L 37.796875 0 
L 37.796875 17.1875 
L 4.890625 17.1875 
L 4.890625 26.703125 
z
" id="DejaVuSans-52"/>
      </defs>
      <use xlink:href="#DejaVuSans-8722"/>
      <use x="83.789062" xlink:href="#DejaVuSans-52"/>
     </g>
    </g>
   </g>
   <g id="xtick_3">
    <g id="line2d_4">
     <path d="M 169.959165 210.990317 
L 168.135164 212.621221 
" style="fill:none;stroke:#000000;stroke-linecap:square;stroke-width:0.8;"/>
    </g>
    <g id="text_3">
     <!-- −2 -->
     <g transform="translate(154.487497 235.134329)scale(0.1 -0.1)">
      <defs>
       <path d="M 19.1875 8.296875 
L 53.609375 8.296875 
L 53.609375 0 
L 7.328125 0 
L 7.328125 8.296875 
Q 12.9375 14.109375 22.625 23.890625 
Q 32.328125 33.6875 34.8125 36.53125 
Q 39.546875 41.84375 41.421875 45.53125 
Q 43.3125 49.21875 43.3125 52.78125 
Q 43.3125 58.59375 39.234375 62.25 
Q 35.15625 65.921875 28.609375 65.921875 
Q 23.96875 65.921875 18.8125 64.3125 
Q 13.671875 62.703125 7.8125 59.421875 
L 7.8125 69.390625 
Q 13.765625 71.78125 18.9375 73 
Q 24.125 74.21875 28.421875 74.21875 
Q 39.75 74.21875 46.484375 68.546875 
Q 53.21875 62.890625 53.21875 53.421875 
Q 53.21875 48.921875 51.53125 44.890625 
Q 49.859375 40.875 45.40625 35.40625 
Q 44.1875 33.984375 37.640625 27.21875 
Q 31.109375 20.453125 19.1875 8.296875 
z
" id="DejaVuSans-50"/>
      </defs>
      <use xlink:href="#DejaVuSans-8722"/>
      <use x="83.789062" xlink:href="#DejaVuSans-50"/>
     </g>
    </g>
   </g>
   <g id="xtick_4">
    <g id="line2d_5">
     <path d="M 189.15721 217.254202 
L 187.360066 218.91252 
" style="fill:none;stroke:#000000;stroke-linecap:square;stroke-width:0.8;"/>
    </g>
    <g id="text_4">
     <!-- 0 -->
     <g transform="translate(177.91082 241.571064)scale(0.1 -0.1)">
      <defs>
       <path d="M 31.78125 66.40625 
Q 24.171875 66.40625 20.328125 58.90625 
Q 16.5 51.421875 16.5 36.375 
Q 16.5 21.390625 20.328125 13.890625 
Q 24.171875 6.390625 31.78125 6.390625 
Q 39.453125 6.390625 43.28125 13.890625 
Q 47.125 21.390625 47.125 36.375 
Q 47.125 51.421875 43.28125 58.90625 
Q 39.453125 66.40625 31.78125 66.40625 
z
M 31.78125 74.21875 
Q 44.046875 74.21875 50.515625 64.515625 
Q 56.984375 54.828125 56.984375 36.375 
Q 56.984375 17.96875 50.515625 8.265625 
Q 44.046875 -1.421875 31.78125 -1.421875 
Q 19.53125 -1.421875 13.0625 8.265625 
Q 6.59375 17.96875 6.59375 36.375 
Q 6.59375 54.828125 13.0625 64.515625 
Q 19.53125 74.21875 31.78125 74.21875 
z
" id="DejaVuSans-48"/>
      </defs>
      <use xlink:href="#DejaVuSans-48"/>
     </g>
    </g>
   </g>
   <g id="xtick_5">
    <g id="line2d_6">
     <path d="M 208.678966 223.623707 
L 206.909849 225.310136 
" style="fill:none;stroke:#000000;stroke-linecap:square;stroke-width:0.8;"/>
    </g>
    <g id="text_5">
     <!-- 2 -->
     <g transform="translate(197.47037 248.116923)scale(0.1 -0.1)">
      <use xlink:href="#DejaVuSans-50"/>
     </g>
    </g>
   </g>
   <g id="xtick_6">
    <g id="line2d_7">
     <path d="M 228.532689 230.101525 
L 226.792818 231.816786 
" style="fill:none;stroke:#000000;stroke-linecap:square;stroke-width:0.8;"/>
    </g>
    <g id="text_6">
     <!-- 4 -->
     <g transform="translate(217.364356 254.774706)scale(0.1 -0.1)">
      <use xlink:href="#DejaVuSans-52"/>
     </g>
    </g>
   </g>
   <g id="xtick_7">
    <g id="line2d_8">
     <path d="M 248.72692 236.690444 
L 247.017565 238.435282 
" style="fill:none;stroke:#000000;stroke-linecap:square;stroke-width:0.8;"/>
    </g>
    <g id="text_7">
     <!-- 6 -->
     <g transform="translate(237.601428 261.547306)scale(0.1 -0.1)">
      <use xlink:href="#DejaVuSans-54"/>
     </g>
    </g>
   </g>
  </g>
  <g id="axis3d_2">
   <g id="line2d_9">
    <path d="M 316.12668 171.68791 
L 251.239879 238.27773 
" style="fill:none;stroke:#000000;stroke-linecap:square;stroke-width:0.8;"/>
   </g>
   <g id="Line3DCollection_2">
    <path d="M 129.866948 102.505071 
L 134.046245 194.238731 
L 255.729543 233.67023 
" style="fill:none;stroke:#b0b0b0;stroke-width:0.8;"/>
    <path d="M 141.532777 93.99188 
L 145.149448 184.931807 
L 265.794244 223.341371 
" style="fill:none;stroke:#b0b0b0;stroke-width:0.8;"/>
    <path d="M 152.892681 85.70194 
L 155.974037 175.858421 
L 275.593154 213.285279 
" style="fill:none;stroke:#b0b0b0;stroke-width:0.8;"/>
    <path d="M 163.958537 77.626582 
L 166.530371 167.009893 
L 285.136664 203.491289 
" style="fill:none;stroke:#b0b0b0;stroke-width:0.8;"/>
    <path d="M 174.741618 69.757581 
L 176.828298 158.377966 
L 294.434633 193.949287 
" style="fill:none;stroke:#b0b0b0;stroke-width:0.8;"/>
    <path d="M 185.252624 62.087127 
L 186.877192 149.954784 
L 303.496415 184.649669 
" style="fill:none;stroke:#b0b0b0;stroke-width:0.8;"/>
    <path d="M 195.501727 54.607799 
L 196.68598 141.732864 
L 312.330896 175.583317 
" style="fill:none;stroke:#b0b0b0;stroke-width:0.8;"/>
   </g>
   <g id="xtick_8">
    <g id="line2d_10">
     <path d="M 254.704115 233.337939 
L 257.783053 234.33567 
" style="fill:none;stroke:#000000;stroke-linecap:square;stroke-width:0.8;"/>
    </g>
    <g id="text_8">
     <!-- −1.5 -->
     <g transform="translate(256.470498 254.693759)scale(0.1 -0.1)">
      <defs>
       <path d="M 12.40625 8.296875 
L 28.515625 8.296875 
L 28.515625 63.921875 
L 10.984375 60.40625 
L 10.984375 69.390625 
L 28.421875 72.90625 
L 38.28125 72.90625 
L 38.28125 8.296875 
L 54.390625 8.296875 
L 54.390625 0 
L 12.40625 0 
z
" id="DejaVuSans-49"/>
       <path d="M 10.6875 12.40625 
L 21 12.40625 
L 21 0 
L 10.6875 0 
z
" id="DejaVuSans-46"/>
       <path d="M 10.796875 72.90625 
L 49.515625 72.90625 
L 49.515625 64.59375 
L 19.828125 64.59375 
L 19.828125 46.734375 
Q 21.96875 47.46875 24.109375 47.828125 
Q 26.265625 48.1875 28.421875 48.1875 
Q 40.625 48.1875 47.75 41.5 
Q 54.890625 34.8125 54.890625 23.390625 
Q 54.890625 11.625 47.5625 5.09375 
Q 40.234375 -1.421875 26.90625 -1.421875 
Q 22.3125 -1.421875 17.546875 -0.640625 
Q 12.796875 0.140625 7.71875 1.703125 
L 7.71875 11.625 
Q 12.109375 9.234375 16.796875 8.0625 
Q 21.484375 6.890625 26.703125 6.890625 
Q 35.15625 6.890625 40.078125 11.328125 
Q 45.015625 15.765625 45.015625 23.390625 
Q 45.015625 31 40.078125 35.4375 
Q 35.15625 39.890625 26.703125 39.890625 
Q 22.75 39.890625 18.8125 39.015625 
Q 14.890625 38.140625 10.796875 36.28125 
z
" id="DejaVuSans-53"/>
      </defs>
      <use xlink:href="#DejaVuSans-8722"/>
      <use x="83.789062" xlink:href="#DejaVuSans-49"/>
      <use x="147.412109" xlink:href="#DejaVuSans-46"/>
      <use x="179.199219" xlink:href="#DejaVuSans-53"/>
     </g>
    </g>
   </g>
   <g id="xtick_9">
    <g id="line2d_11">
     <path d="M 264.778255 223.017912 
L 267.828812 223.989115 
" style="fill:none;stroke:#000000;stroke-linecap:square;stroke-width:0.8;"/>
    </g>
    <g id="text_9">
     <!-- −1.0 -->
     <g transform="translate(266.369975 244.177664)scale(0.1 -0.1)">
      <use xlink:href="#DejaVuSans-8722"/>
      <use x="83.789062" xlink:href="#DejaVuSans-49"/>
      <use x="147.412109" xlink:href="#DejaVuSans-46"/>
      <use x="179.199219" xlink:href="#DejaVuSans-48"/>
     </g>
    </g>
   </g>
   <g id="xtick_10">
    <g id="line2d_12">
     <path d="M 274.586468 212.970304 
L 277.609059 213.916023 
" style="fill:none;stroke:#000000;stroke-linecap:square;stroke-width:0.8;"/>
    </g>
    <g id="text_10">
     <!-- −0.5 -->
     <g transform="translate(276.007839 233.939478)scale(0.1 -0.1)">
      <use xlink:href="#DejaVuSans-8722"/>
      <use x="83.789062" xlink:href="#DejaVuSans-48"/>
      <use x="147.412109" xlink:href="#DejaVuSans-46"/>
      <use x="179.199219" xlink:href="#DejaVuSans-53"/>
     </g>
    </g>
   </g>
   <g id="xtick_11">
    <g id="line2d_13">
     <path d="M 284.139145 203.184468 
L 287.134182 204.105694 
" style="fill:none;stroke:#000000;stroke-linecap:square;stroke-width:0.8;"/>
    </g>
    <g id="text_11">
     <!-- 0.0 -->
     <g transform="translate(289.584168 223.968328)scale(0.1 -0.1)">
      <use xlink:href="#DejaVuSans-48"/>
      <use x="63.623047" xlink:href="#DejaVuSans-46"/>
      <use x="95.410156" xlink:href="#DejaVuSans-48"/>
     </g>
    </g>
   </g>
   <g id="xtick_12">
    <g id="line2d_14">
     <path d="M 293.446144 193.650307 
L 296.414035 194.547978 
" style="fill:none;stroke:#000000;stroke-linecap:square;stroke-width:0.8;"/>
    </g>
    <g id="text_12">
     <!-- 0.5 -->
     <g transform="translate(298.728983 214.253902)scale(0.1 -0.1)">
      <use xlink:href="#DejaVuSans-48"/>
      <use x="63.623047" xlink:href="#DejaVuSans-46"/>
      <use x="95.410156" xlink:href="#DejaVuSans-53"/>
     </g>
    </g>
   </g>
   <g id="xtick_13">
    <g id="line2d_15">
     <path d="M 302.516822 184.358235 
L 305.457972 185.233244 
" style="fill:none;stroke:#000000;stroke-linecap:square;stroke-width:0.8;"/>
    </g>
    <g id="text_13">
     <!-- 1.0 -->
     <g transform="translate(307.641342 204.78641)scale(0.1 -0.1)">
      <use xlink:href="#DejaVuSans-49"/>
      <use x="63.623047" xlink:href="#DejaVuSans-46"/>
      <use x="95.410156" xlink:href="#DejaVuSans-48"/>
     </g>
    </g>
   </g>
   <g id="xtick_14">
    <g id="line2d_16">
     <path d="M 311.360068 175.299146 
L 314.274875 176.15234 
" style="fill:none;stroke:#000000;stroke-linecap:square;stroke-width:0.8;"/>
    </g>
    <g id="text_14">
     <!-- 1.5 -->
     <g transform="translate(316.329998 195.556556)scale(0.1 -0.1)">
      <use xlink:href="#DejaVuSans-49"/>
      <use x="63.623047" xlink:href="#DejaVuSans-46"/>
      <use x="95.410156" xlink:href="#DejaVuSans-53"/>
     </g>
    </g>
   </g>
  </g>
  <g id="axis3d_3">
   <g id="line2d_17">
    <path d="M 316.12668 171.68791 
L 320.238571 81.894718 
" style="fill:none;stroke:#000000;stroke-linecap:square;stroke-width:0.8;"/>
   </g>
   <g id="Line3DCollection_3">
    <path d="M 316.205459 169.967571 
L 200.884845 136.530725 
L 129.013401 196.624949 
" style="fill:none;stroke:#b0b0b0;stroke-width:0.8;"/>
    <path d="M 316.840596 156.097821 
L 200.730402 123.099932 
L 128.329373 182.420679 
" style="fill:none;stroke:#b0b0b0;stroke-width:0.8;"/>
    <path d="M 317.484575 142.034955 
L 200.573911 109.491082 
L 127.635458 168.011083 
" style="fill:none;stroke:#b0b0b0;stroke-width:0.8;"/>
    <path d="M 318.137584 127.774911 
L 200.415332 95.700609 
L 126.93144 153.391677 
" style="fill:none;stroke:#b0b0b0;stroke-width:0.8;"/>
    <path d="M 318.799813 113.313513 
L 200.254622 81.724852 
L 126.217095 138.557845 
" style="fill:none;stroke:#b0b0b0;stroke-width:0.8;"/>
    <path d="M 319.47146 98.646466 
L 200.091738 67.560054 
L 125.492195 123.504834 
" style="fill:none;stroke:#b0b0b0;stroke-width:0.8;"/>
    <path d="M 320.152726 83.769352 
L 199.926636 53.202351 
L 124.756505 108.227751 
" style="fill:none;stroke:#b0b0b0;stroke-width:0.8;"/>
   </g>
   <g id="xtick_15">
    <g id="line2d_18">
     <path d="M 315.237563 169.686933 
L 318.143556 170.529516 
" style="fill:none;stroke:#000000;stroke-linecap:square;stroke-width:0.8;"/>
    </g>
    <g id="text_15">
     <!-- −1.5 -->
     <g transform="translate(322.315759 174.966846)scale(0.1 -0.1)">
      <use xlink:href="#DejaVuSans-8722"/>
      <use x="83.789062" xlink:href="#DejaVuSans-49"/>
      <use x="147.412109" xlink:href="#DejaVuSans-46"/>
      <use x="179.199219" xlink:href="#DejaVuSans-53"/>
     </g>
    </g>
   </g>
   <g id="xtick_16">
    <g id="line2d_19">
     <path d="M 315.865757 155.820777 
L 318.79261 156.652573 
" style="fill:none;stroke:#000000;stroke-linecap:square;stroke-width:0.8;"/>
    </g>
    <g id="text_16">
     <!-- −1.0 -->
     <g transform="translate(323.074267 161.130446)scale(0.1 -0.1)">
      <use xlink:href="#DejaVuSans-8722"/>
      <use x="83.789062" xlink:href="#DejaVuSans-49"/>
      <use x="147.412109" xlink:href="#DejaVuSans-46"/>
      <use x="179.199219" xlink:href="#DejaVuSans-48"/>
     </g>
    </g>
   </g>
   <g id="xtick_17">
    <g id="line2d_20">
     <path d="M 316.502693 141.761633 
L 319.450708 142.582258 
" style="fill:none;stroke:#000000;stroke-linecap:square;stroke-width:0.8;"/>
    </g>
    <g id="text_17">
     <!-- −0.5 -->
     <g transform="translate(323.843298 147.10211)scale(0.1 -0.1)">
      <use xlink:href="#DejaVuSans-8722"/>
      <use x="83.789062" xlink:href="#DejaVuSans-48"/>
      <use x="147.412109" xlink:href="#DejaVuSans-46"/>
      <use x="179.199219" xlink:href="#DejaVuSans-53"/>
     </g>
    </g>
   </g>
   <g id="xtick_18">
    <g id="line2d_21">
     <path d="M 317.148557 127.505443 
L 320.118041 128.314501 
" style="fill:none;stroke:#000000;stroke-linecap:square;stroke-width:0.8;"/>
    </g>
    <g id="text_18">
     <!-- 0.0 -->
     <g transform="translate(328.812914 132.877818)scale(0.1 -0.1)">
      <use xlink:href="#DejaVuSans-48"/>
      <use x="63.623047" xlink:href="#DejaVuSans-46"/>
      <use x="95.410156" xlink:href="#DejaVuSans-48"/>
     </g>
    </g>
   </g>
   <g id="xtick_19">
    <g id="line2d_22">
     <path d="M 317.803537 113.048036 
L 320.794804 113.845117 
" style="fill:none;stroke:#000000;stroke-linecap:square;stroke-width:0.8;"/>
    </g>
    <g id="text_19">
     <!-- 0.5 -->
     <g transform="translate(329.603656 118.453435)scale(0.1 -0.1)">
      <use xlink:href="#DejaVuSans-48"/>
      <use x="63.623047" xlink:href="#DejaVuSans-46"/>
      <use x="95.410156" xlink:href="#DejaVuSans-53"/>
     </g>
    </g>
   </g>
   <g id="xtick_20">
    <g id="line2d_23">
     <path d="M 318.467827 98.385121 
L 321.481199 99.169801 
" style="fill:none;stroke:#000000;stroke-linecap:square;stroke-width:0.8;"/>
    </g>
    <g id="text_20">
     <!-- 1.0 -->
     <g transform="translate(330.4056 103.824708)scale(0.1 -0.1)">
      <use xlink:href="#DejaVuSans-49"/>
      <use x="63.623047" xlink:href="#DejaVuSans-46"/>
      <use x="95.410156" xlink:href="#DejaVuSans-48"/>
     </g>
    </g>
   </g>
   <g id="xtick_21">
    <g id="line2d_24">
     <path d="M 319.141628 83.512284 
L 322.177433 84.284126 
" style="fill:none;stroke:#000000;stroke-linecap:square;stroke-width:0.8;"/>
    </g>
    <g id="text_21">
     <!-- 1.5 -->
     <g transform="translate(331.218985 88.987265)scale(0.1 -0.1)">
      <use xlink:href="#DejaVuSans-49"/>
      <use x="63.623047" xlink:href="#DejaVuSans-46"/>
      <use x="95.410156" xlink:href="#DejaVuSans-53"/>
     </g>
    </g>
   </g>
  </g>
  <g id="axes_1">
   <g id="line2d_25">
    <path clip-path="url(#p543610ba70)" d="M 141.344465 194.868925 
L 163.177146 176.398333 
L 172.296214 179.244714 
L 150.610971 197.864649 
L 149.543402 169.219764 
L 171.561976 151.071923 
L 162.317723 148.298881 
L 140.147679 166.299097 
L 138.915872 136.89325 
L 148.444462 139.733138 
L 147.312748 109.367116 
L 137.647484 106.614144 
L 160.524324 89.662394 
L 170.029543 92.272238 
L 170.806725 122.092805 
L 161.433804 119.398482 
L 182.814208 102.787488 
L 192.034813 105.347157 
L 191.577886 76.056647 
L 182.229226 73.579051 
L 202.849995 58.299052 
L 212.045666 60.654201 
L 212.212878 89.429814 
L 203.141158 86.994951 
L 203.700438 142.115361 
L 183.936731 158.835587 
L 183.38316 131.195515 
L 192.479169 133.831847 
L 192.911467 161.54352 
L 212.534017 144.694706 
L 212.375602 117.433088 
L 221.395714 119.961934 
L 221.43483 147.293683 
L 201.956203 164.272573 
L 201.647104 136.489026 
L 210.887821 139.1673 
L 211.071761 167.022996 
L 230.403646 149.912517 
L 230.569948 94.356879 
L 221.35553 91.883715 
L 221.314233 63.028021 
L 230.656566 65.420733 
L 210.504203 81.072527 
L 201.002568 78.55439 
L 201.329349 107.92735 
L 210.698709 110.528314 
L 189.784871 127.548228 
L 180.256762 124.809295 
L 179.614106 94.903869 
L 189.279012 97.557558 
L 166.89298 114.944183 
L 157.06089 112.143694 
L 158.053553 142.597019 
L 167.744168 145.485197 
L 168.5705 175.134352 
L 190.276339 156.685759 
L 180.88121 153.867457 
L 159.017349 172.164748 
L 159.953519 200.884957 
L 181.488214 182.113859 
L 190.754023 185.006043 
L 169.373049 203.930152 
L 178.870516 207.000542 
L 200.094536 187.921544 
L 209.510658 190.860646 
L 188.446892 210.096443 
L 187.918422 181.148667 
L 209.298026 162.391783 
L 199.748296 159.527106 
L 178.203853 178.128886 
L 177.51735 148.397982 
L 187.374157 151.335692 
L 186.813379 120.618141 
L 176.810106 117.768893 
L 199.025274 100.233586 
L 208.853925 102.932235 
L 209.079206 133.094542 
L 199.392023 130.309882 
L 220.1438 113.150301 
L 229.665545 115.793568 
L 229.742138 86.170993 
L 220.083739 83.61131 
L 240.07355 67.832565 
L 249.566083 70.263745 
L 249.217492 99.361907 
L 239.856981 96.849532 
L 239.441249 152.551436 
L 220.258975 169.795039 
L 220.202189 141.866921 
L 229.591094 144.588144 
L 229.518695 172.588959 
L 248.548433 155.210672 
L 248.878403 127.666884 
L 258.182842 130.275444 
L 257.726003 157.890461 
L 238.851781 175.405016 
L 239.055432 147.331231 
L 248.596118 150.096446 
L 248.25911 178.243474 
L 266.974781 160.591041 
L 268.16246 104.446765 
L 258.652355 101.894239 
L 259.135078 72.714509 
L 268.781463 75.185093 
L 249.299448 91.3541 
L 239.480376 88.751835 
L 239.26488 118.458374 
L 248.942758 121.144983 
L 228.697699 138.734039 
L 218.847424 135.902497 
L 218.766014 105.653794 
L 228.762607 108.398555 
L 207.082888 126.391536 
L 196.903923 123.492246 
L 197.315669 154.298647 
L 207.342982 157.287173 
L 207.595351 187.265255 
L 228.634668 168.192286 
L 218.92649 165.280079 
L 197.715238 184.194015 
L 198.103164 213.218173 
L 219.003312 193.823636 
L 228.573433 196.810806 
L 207.840335 216.366056 
L 217.659428 219.540424 
L 238.221976 199.822455 
L 247.949907 202.858883 
L 227.56148 222.741611 
L 227.609751 193.486745 
L 248.294154 174.089634 
L 238.423552 171.128704 
L 217.559827 190.362719 
L 217.45721 160.301605 
L 227.65949 163.342278 
L 227.710765 132.267006 
L 217.351439 129.316343 
L 238.84479 111.166816 
L 249.013666 113.958881 
L 248.648587 144.469085 
L 238.631068 141.589467 
L 258.700146 123.853665 
L 268.538028 126.584692 
L 269.184154 96.623974 
L 259.200365 93.978055 
L 278.506179 77.675739 
L 288.310186 80.186693 
L 287.412024 109.613377 
L 277.74871 107.019729 
L 276.295596 163.312656 
L 257.74157 181.104602 
L 258.214078 152.884058 
L 267.910255 155.694339 
L 267.300065 183.988671 
L 285.689295 166.055553 
L 286.538734 138.225202 
L 296.141158 140.917304 
L 295.156735 168.819982 
L 276.935514 186.895959 
L 277.685607 158.527569 
L 287.541108 161.384028 
L 286.648849 189.826748 
L 304.698789 171.606197 
L 306.973591 114.86373 
L 297.153335 112.227959 
L 298.194456 82.718204 
L 308.15998 85.270524 
L 289.404547 101.982812 
L 279.251861 99.292132 
L 278.457404 129.338343 
L 288.459292 132.114898 
L 268.940392 150.30213 
L 258.751331 147.373201 
L 259.27036 116.775057 
L 269.616013 119.61566 
L 248.7066 138.247281 
L 238.162075 135.243868 
L 237.950976 166.409539 
L 248.332843 169.503736 
L 247.970379 199.815861 
L 268.284637 180.086273 
L 258.247501 177.075386 
L 237.746227 196.637676 
L 237.547547 225.969959 
L 257.75821 205.920398 
L 267.647885 209.007312 
L 247.618703 229.225814 
L 247.618703 229.225814 
" style="fill:none;stroke:#1f77b4;stroke-linecap:square;stroke-width:1.5;"/>
   </g>
  </g>
 </g>
 <defs>
  <clipPath id="p543610ba70">
   <rect height="217.44" width="217.44" x="112.68" y="34.56"/>
  </clipPath>
 </defs>
</svg>
